<svg xmlns="http://www.w3.org/2000/svg" width="805" height="600"><rect width="805" height="600" x="0" y="0" fill="#FFFFFF" id="background"/><g id="viz"><g transform="translate(0,0)"><g transform="translate(10,20)"><g><path fill="#9467bd" d="M0,289.0611603943C0,289.0611603943,11.376811594202898,292.81786456945554,17.065217391304348,293.8349614279333C22.753623188405797,294.8520582864111,28.44202898550725,298.6286333126444,34.130434782608695,295.16374154516666C39.81884057971014,291.6988497776889,45.507246376811594,286.34140290392776,51.19565217391304,273.0456108230666C56.884057971014485,259.7498187422055,62.57246376811594,230.56214393551107,68.26086956521739,215.38898905999997C73.94927536231884,200.21583418448887,79.63768115942028,174.90569677,85.32608695652173,182.00668156999998C91.01449275362319,189.10766636999998,96.70289855072463,239.42227573366665,102.39130434782608,257.99489786C108.07971014492753,276.5675199863333,113.76811594202898,286.5728893968889,119.45652173913044,293.44241432800004C125.14492753623189,300.31193925911117,130.83333333333334,292.17057839907784,136.52173913043478,299.2120474466667C142.21014492753622,306.25351649425556,147.8985507246377,329.85127172153335,153.58695652173913,335.6912286135333C159.27536231884056,341.5311855055333,164.963768115942,337.3573646946999,170.65217391304347,334.2517887986666C176.34057971014494,331.1462129026333,182.0289855072464,316.14350521638886,187.71739130434784,317.0577732373333C193.40579710144928,317.9720412582778,199.09420289855072,332.9072348898333,204.78260869565216,339.7373969243333C210.4710144927536,346.56755895883333,216.15942028985506,356.0770590042556,221.8478260869565,358.03874544433336C227.53623188405794,360.0004318844111,233.22463768115944,352.7669262946889,238.91304347826087,351.50751556480003C244.6014492753623,350.24810483491115,250.28985507246378,347.7450659508,255.97826086956522,350.482281065C261.6666666666667,353.2194961792,267.3550724637681,364.0739574737222,273.04347826086956,367.93080625C278.731884057971,371.7876550262778,284.42028985507244,366.87908722286113,290.1086956521739,373.62337372266666C295.7971014492753,380.3676602224722,301.4855072463768,403.2161149666222,307.17391304347825,408.3965252488333C312.8623188405797,413.57693553104446,318.5507246376812,403.44715075688333,324.2391304347826,404.70583541593334C329.92753623188406,405.96452007498334,335.6159420289855,413.8645311458,341.30434782608694,415.94863320313334C346.9927536231884,418.03273526046667,352.6811594202899,411.67718689000554,358.3695652173913,417.21044775993334C364.05797101449275,422.74370862986115,369.74637681159425,440.65296919458893,375.4347826086957,449.14819842270003C381.1231884057971,457.64342765081113,386.81159420289856,462.39910975047223,392.5,468.1818231286C398.18840579710144,473.96453650672777,403.8768115942029,481.2406486602167,409.5652173913043,483.8444786914667C415.25362318840575,486.44830872271666,420.94202898550725,480.3383070477444,426.6304347826087,483.8048033161C432.3188405797101,487.27129958445556,438.00724637681157,497.5244847335506,443.695652173913,504.64345630160005C449.38405797101444,511.7624278696495,455.072463768116,521.5445098681339,460.76086956521743,526.5186327243966C466.4492753623189,531.4927555806594,472.1376811594203,531.9591594577205,477.82608695652175,534.4881934391766C483.5144927536232,537.0172274206327,489.2028985507247,540.4624381789461,494.8913043478261,541.6928366131333C500.57971014492756,542.9232350473205,506.268115942029,543.3825991727622,511.95652173913044,541.8705840443C517.6449275362319,540.3585689158378,523.3333333333333,538.5018639240062,529.0217391304348,532.6207458423601C534.7101449275362,526.7396277607139,540.3985507246376,513.7269362219866,546.0869565217391,506.58387555442334C551.7753623188406,499.44081488686,557.463768115942,496.1245700726739,563.1521739130435,489.76238183698C568.840579710145,483.4001936012861,574.5289855072463,471.9380675066089,580.2173913043478,468.41074614026C585.9057971014493,464.88342477391114,591.5942028985507,469.58456089568335,597.2826086956522,468.59845363888667C602.9710144927537,467.61234638209,608.659420289855,463.7649121933839,614.3478260869565,462.49410259948C620.036231884058,461.2232930055761,625.7246376811594,462.53461507426834,631.4130434782609,460.9735960754633C637.1014492753624,459.4125770766583,642.7898550724638,456.22083570579053,648.4782608695652,453.12798860665C654.1666666666667,450.0351415075094,659.855072463768,445.47747185279337,665.5434782608695,442.41651348062004C671.231884057971,439.3555551084467,676.9202898550724,435.8026439461256,682.6086956521739,434.76223837361005C688.2971014492754,433.7218328010945,693.9855072463768,437.3804241757533,699.6739130434783,436.17408004552664C705.3623188405797,434.96773591529995,711.0507246376811,433.59062412649274,716.7391304347826,427.52417359224995C722.4275362318841,421.45772305800716,728.1159420289855,409.0774573752067,733.804347826087,399.77537684007C739.4927536231885,390.47329630493334,745.18115942029,381.2227690595994,750.8695652173914,371.71169038142995C756.5579710144928,362.2006117032605,762.2463768115942,352.1470737925972,767.9347826086956,342.7089047710533C773.623188405797,333.2707357495094,785,315.08267625216666,785,315.08267625216666L785,315.08267625216666C785,315.08267625216666,773.623188405797,333.2707357495094,767.9347826086956,342.7089047710533C762.2463768115942,352.1470737925972,756.5579710144928,362.2006117032605,750.8695652173914,371.71169038142995C745.18115942029,381.2227690595994,739.4927536231885,390.47329630493334,733.804347826087,399.77537684007C728.1159420289855,409.0774573752067,722.4275362318841,421.45772305800716,716.7391304347826,427.52417359224995C711.0507246376811,433.59062412649274,705.3623188405797,434.96773591529995,699.6739130434783,436.17408004552664C693.9855072463768,437.3804241757533,688.2971014492754,433.7218328010945,682.6086956521739,434.76223837361005C676.9202898550724,435.8026439461256,671.231884057971,439.3555551084467,665.5434782608695,442.41651348062004C659.855072463768,445.47747185279337,654.1666666666667,450.0351415075094,648.4782608695652,453.12798860665C642.7898550724638,456.22083570579053,637.1014492753624,459.4125770766583,631.4130434782609,460.9735960754633C625.7246376811594,462.53461507426834,620.036231884058,461.2191370045,614.3478260869565,462.49410259948C608.659420289855,463.76906819446003,602.9710144927537,467.62289423128607,597.2826086956522,468.6233896453433C591.5942028985507,469.62388505940055,585.9057971014493,464.95566259470604,580.2173913043478,468.4970750838233C574.5289855072463,472.03848757294054,568.840579710145,483.4573757979078,563.1521739130435,489.8718645800467C557.463768115942,496.2863533621856,551.7753623188406,499.7344559931267,546.0869565217391,506.98400777665665C540.3985507246376,514.2335595601867,534.7101449275362,526.9706406741194,529.0217391304348,533.3691752812266C523.3333333333333,539.7677098883338,517.6449275362319,542.8284737964823,511.95652173913044,545.3752154193C506.268115942029,547.9219570421178,500.57971014492756,548.4240374694316,494.8913043478261,548.6496250181333C489.2028985507247,548.875212566835,483.5144927536232,546.7763788988044,477.82608695652175,546.72874071151C472.1376811594203,546.6811025242156,466.4492753623189,548.7562310830793,460.76086956521743,548.3637958943666C455.072463768116,547.9713607056539,449.38405797101444,545.8974594072222,443.695652173913,544.3741295792333C438.00724637681157,542.8507997512445,432.3188405797101,539.0527155989499,426.6304347826087,539.2238169264333C420.94202898550725,539.3949182539167,415.25362318840575,543.9683056424944,409.5652173913043,545.4007375441333C403.8768115942029,546.8331694457722,398.18840579710144,547.2907894546166,392.5,547.8184083362667C386.81159420289856,548.3460272179167,381.1231884057971,548.5226162958112,375.4347826086957,548.5664508340334C369.74637681159425,548.6102853722556,364.05797101449275,548.0686294391389,358.3695652173913,548.0814155656C352.6811594202899,548.094201692061,346.9927536231884,548.338339145411,341.30434782608694,548.6431675928C335.6159420289855,548.9479960401889,329.92753623188406,549.5607413504833,324.2391304347826,549.9103862499334C318.5507246376812,550.2600311493834,312.8623188405797,551.7461913364333,307.17391304347825,550.7410369895C301.4855072463768,549.7358826425667,295.7971014492753,545.9611997915833,290.1086956521739,543.8794601683334C284.42028985507244,541.7977205450834,278.731884057971,541.5527044833889,273.04347826086956,538.25059925C267.3550724637681,534.9484940166112,261.6666666666667,529.1623729081667,255.97826086956522,524.066828768C250.28985507246378,518.9712846278334,244.6014492753623,512.674803382389,238.91304347826087,507.677334409C233.22463768115944,502.67986543561113,227.53623188405794,499.7897968023333,221.8478260869565,494.08201492766665C216.15942028985506,488.374233053,210.4710144927536,480.1230854532778,204.78260869565216,473.43064316100003C199.09420289855072,466.7382008687223,193.40579710144928,459.04717007216664,187.71739130434784,453.927361174C182.0289855072464,448.80755227583336,176.34057971014494,447.7826628749445,170.65217391304347,442.71178977200003C164.963768115942,437.64091666905557,159.27536231884056,432.37088963249994,153.58695652173913,423.5021225563333C147.8985507246377,414.63335548016664,142.21014492753622,396.3107435408334,136.52173913043478,389.4991873150001C130.83333333333334,382.68763108916676,125.14492753623189,387.2279768843889,119.45652173913044,382.6327852013333C113.76811594202898,378.03759351827773,108.07971014492753,374.050950518,102.39130434782608,361.92803721666667C96.70289855072463,349.80512391533335,91.01449275362319,316.9179602905556,85.32608695652173,309.89530539333333C79.63768115942028,302.8726504961111,73.94927536231884,311.44849052333325,68.26086956521739,319.79210783333326C62.57246376811594,328.1357251433333,56.884057971014485,351.2736069811111,51.19565217391304,359.9570092533333C45.507246376811594,368.6404115255555,39.81884057971014,369.81051354333334,34.130434782608695,371.89252146666666C28.44202898550725,373.97452939,22.753623188405797,373.25326788166666,17.065217391304348,372.44905679333334C11.376811594202898,371.644845705,0,367.0672549366667,0,367.0672549366667Z"><title>Tape</title></path><path fill="#1f77b4" d="M0,289.0611603943C0,289.0611603943,11.376811594202898,292.81786456945554,17.065217391304348,293.8349614279333C22.753623188405797,294.8520582864111,28.44202898550725,298.6286333126444,34.130434782608695,295.16374154516666C39.81884057971014,291.6988497776889,45.507246376811594,286.34140290392776,51.19565217391304,273.0456108230666C56.884057971014485,259.7498187422055,62.57246376811594,230.56214393551107,68.26086956521739,215.38898905999997C73.94927536231884,200.21583418448887,79.63768115942028,174.90569677,85.32608695652173,182.00668156999998C91.01449275362319,189.10766636999998,96.70289855072463,239.42227573366665,102.39130434782608,257.99489786C108.07971014492753,276.5675199863333,113.76811594202898,286.5728893968889,119.45652173913044,293.44241432800004C125.14492753623189,300.31193925911117,130.83333333333334,292.17057839907784,136.52173913043478,299.2120474466667C142.21014492753622,306.25351649425556,147.8985507246377,330.02296461979444,153.58695652173913,335.6912286135333C159.27536231884056,341.3594926072722,164.963768115942,337.31568755702216,170.65217391304347,333.2216314090999C176.34057971014494,329.1275752611777,182.0289855072464,313.6399023605166,187.71739130434784,311.12689172599994C193.40579710144928,308.6138810914833,199.09420289855072,318.7622024350555,204.78260869565216,318.14356760199996C210.4710144927536,317.52493276894444,216.15942028985506,315.80153431275556,221.8478260869565,307.4150827276667C227.53623188405794,299.0286311425778,233.22463768115944,278.2933757539833,238.91304347826087,267.82485809146664C244.6014492753623,257.35634042895,250.28985507246378,248.66761501781113,255.97826086956522,244.6039767525667C261.6666666666667,240.54033848732226,267.3550724637681,248.24140879136664,273.04347826086956,243.44302849999997C278.731884057971,238.6446482086333,284.42028985507244,220.2416548268222,290.1086956521739,215.81369500436665C295.7971014492753,211.3857351819111,301.4855072463768,223.4585427030055,307.17391304347825,216.8752695652666C312.8623188405797,210.2919964275277,318.5507246376812,188.25149658941106,324.2391304347826,176.3140561779333C329.92753623188406,164.37661576645556,335.6159420289855,162.2629365313834,341.30434782608694,145.25062709640005C346.9927536231884,128.23831766141672,352.6811594202899,85.4900363707055,358.3695652173913,74.24019956803326C364.05797101449275,62.990362765361034,369.74637681159425,76.21404570021666,375.4347826086957,77.75160628036667C381.1231884057971,79.28916686051669,386.81159420289856,78.89202509008334,392.5,83.46556304893333C398.18840579710144,88.03910100778333,403.8768115942029,109.40215865860557,409.5652173913043,105.19283403346668C415.25362318840575,100.98350940832779,420.94202898550725,69.44578438357779,426.6304347826087,58.20961529810002C432.3188405797101,46.97344621262225,438.00724637681157,36.844047411161746,443.695652173913,37.77581952060007C449.38405797101444,38.7075916300384,455.072463768116,53.93267492341167,460.76086956521743,63.80024795473C466.4492753623189,73.66782098604833,472.1376811594203,84.00282043572614,477.82608695652175,96.98125770851003C483.5144927536232,109.95969498129392,489.2028985507247,128.55489276816283,494.8913043478261,141.67087159143338C500.57971014492756,154.78685041470393,506.268115942029,170.93054784270112,511.95652173913044,175.67713064813333C517.6449275362319,180.42371345356554,523.3333333333333,168.66125148780054,529.0217391304348,170.15036842402665C534.7101449275362,171.63948536025276,540.3985507246376,177.63069173832884,546.0869565217391,184.61183226548994C551.7753623188406,191.59297279265104,557.463768115942,200.55479168387055,563.1521739130435,212.03721158699332C568.840579710145,223.5196314901161,574.5289855072463,236.04187612181553,580.2173913043478,253.50635168422664C585.9057971014493,270.9708272466377,591.5942028985507,302.03273246444274,597.2826086956522,316.82406496145995C602.9710144927537,331.61539745847716,608.659420289855,333.7042951994656,614.3478260869565,342.25434666633004C620.036231884058,350.80439813319447,625.7246376811594,363.3725071350228,631.4130434782609,368.12437376264666C637.1014492753624,372.87624039027054,642.7898550724638,369.1668763204838,648.4782608695652,370.7655464320733C654.1666666666667,372.36421654366274,659.855072463768,376.20197283656944,665.5434782608695,377.71639443218334C671.231884057971,379.23081602779723,676.9202898550724,377.58724630036664,682.6086956521739,379.85207600575666C688.2971014492754,382.11690571114667,693.9855072463768,389.43077330226606,699.6739130434783,391.3053726645233C705.3623188405797,393.17997202678055,711.0507246376811,394.3782525232356,716.7391304347826,391.09967217930006C722.4275362318841,387.82109183536454,728.1159420289855,379.1632354972856,733.804347826087,371.63389060091004C739.4927536231885,364.1045457045345,745.18115942029,353.51361237699115,750.8695652173914,345.9236028010467C756.5579710144928,338.3335932251022,762.2463768115942,333.62613941866226,767.9347826086956,326.09383314524337C773.623188405797,318.56152687182447,785,300.7297651605333,785,300.7297651605333L785,315.08267625216666C785,315.08267625216666,773.623188405797,333.2707357495094,767.9347826086956,342.7089047710533C762.2463768115942,352.1470737925972,756.5579710144928,362.2006117032605,750.8695652173914,371.71169038142995C745.18115942029,381.2227690595994,739.4927536231885,390.47329630493334,733.804347826087,399.77537684007C728.1159420289855,409.0774573752067,722.4275362318841,421.45772305800716,716.7391304347826,427.52417359224995C711.0507246376811,433.59062412649274,705.3623188405797,434.96773591529995,699.6739130434783,436.17408004552664C693.9855072463768,437.3804241757533,688.2971014492754,433.7218328010945,682.6086956521739,434.76223837361005C676.9202898550724,435.8026439461256,671.231884057971,439.3555551084467,665.5434782608695,442.41651348062004C659.855072463768,445.47747185279337,654.1666666666667,450.0351415075094,648.4782608695652,453.12798860665C642.7898550724638,456.22083570579053,637.1014492753624,459.4125770766583,631.4130434782609,460.9735960754633C625.7246376811594,462.53461507426834,620.036231884058,461.2232930055761,614.3478260869565,462.49410259948C608.659420289855,463.7649121933839,602.9710144927537,467.61234638209,597.2826086956522,468.59845363888667C591.5942028985507,469.58456089568335,585.9057971014493,464.88342477391114,580.2173913043478,468.41074614026C574.5289855072463,471.9380675066089,568.840579710145,483.4001936012861,563.1521739130435,489.76238183698C557.463768115942,496.1245700726739,551.7753623188406,499.44081488686,546.0869565217391,506.58387555442334C540.3985507246376,513.7269362219866,534.7101449275362,526.7396277607139,529.0217391304348,532.6207458423601C523.3333333333333,538.5018639240062,517.6449275362319,540.3585689158378,511.95652173913044,541.8705840443C506.268115942029,543.3825991727622,500.57971014492756,542.9232350473205,494.8913043478261,541.6928366131333C489.2028985507247,540.4624381789461,483.5144927536232,537.0172274206327,477.82608695652175,534.4881934391766C472.1376811594203,531.9591594577205,466.4492753623189,531.4927555806594,460.76086956521743,526.5186327243966C455.072463768116,521.5445098681339,449.38405797101444,511.7624278696495,443.695652173913,504.64345630160005C438.00724637681157,497.5244847335506,432.3188405797101,487.27129958445556,426.6304347826087,483.8048033161C420.94202898550725,480.3383070477444,415.25362318840575,486.44830872271666,409.5652173913043,483.8444786914667C403.8768115942029,481.2406486602167,398.18840579710144,473.96453650672777,392.5,468.1818231286C386.81159420289856,462.39910975047223,381.1231884057971,457.64342765081113,375.4347826086957,449.14819842270003C369.74637681159425,440.65296919458893,364.05797101449275,422.74370862986115,358.3695652173913,417.21044775993334C352.6811594202899,411.67718689000554,346.9927536231884,418.03273526046667,341.30434782608694,415.94863320313334C335.6159420289855,413.8645311458,329.92753623188406,405.96452007498334,324.2391304347826,404.70583541593334C318.5507246376812,403.44715075688333,312.8623188405797,413.57693553104446,307.17391304347825,408.3965252488333C301.4855072463768,403.2161149666222,295.7971014492753,380.3676602224722,290.1086956521739,373.62337372266666C284.42028985507244,366.87908722286113,278.731884057971,371.7876550262778,273.04347826086956,367.93080625C267.3550724637681,364.0739574737222,261.6666666666667,353.2194961792,255.97826086956522,350.482281065C250.28985507246378,347.7450659508,244.6014492753623,350.24810483491115,238.91304347826087,351.50751556480003C233.22463768115944,352.7669262946889,227.53623188405794,360.0004318844111,221.8478260869565,358.03874544433336C216.15942028985506,356.0770590042556,210.4710144927536,346.56755895883333,204.78260869565216,339.7373969243333C199.09420289855072,332.9072348898333,193.40579710144928,317.9720412582778,187.71739130434784,317.0577732373333C182.0289855072464,316.14350521638886,176.34057971014494,331.1462129026333,170.65217391304347,334.2517887986666C164.963768115942,337.3573646946999,159.27536231884056,341.5311855055333,153.58695652173913,335.6912286135333C147.8985507246377,329.85127172153335,142.21014492753622,306.25351649425556,136.52173913043478,299.2120474466667C130.83333333333334,292.17057839907784,125.14492753623189,300.31193925911117,119.45652173913044,293.44241432800004C113.76811594202898,286.5728893968889,108.07971014492753,276.5675199863333,102.39130434782608,257.99489786C96.70289855072463,239.42227573366665,91.01449275362319,189.10766636999998,85.32608695652173,182.00668156999998C79.63768115942028,174.90569677,73.94927536231884,200.21583418448887,68.26086956521739,215.38898905999997C62.57246376811594,230.56214393551107,56.884057971014485,259.7498187422055,51.19565217391304,273.0456108230666C45.507246376811594,286.34140290392776,39.81884057971014,291.6988497776889,34.130434782608695,295.16374154516666C28.44202898550725,298.6286333126444,22.753623188405797,294.8520582864111,17.065217391304348,293.8349614279333C11.376811594202898,292.81786456945554,0,289.0611603943,0,289.0611603943Z"><title>Disc</title></path><path fill="#ff7f0e" d="M0,560C0,560,11.376811594202898,560,17.065217391304348,560C22.753623188405797,560,28.44202898550725,560,34.130434782608695,560C39.81884057971014,560,45.507246376811594,560,51.19565217391304,560C56.884057971014485,560,62.57246376811594,560,68.26086956521739,560C73.94927536231884,560,79.63768115942028,560,85.32608695652173,560C91.01449275362319,560,96.70289855072463,560,102.39130434782608,560C108.07971014492753,560,113.76811594202898,560,119.45652173913044,560C125.14492753623189,560,130.83333333333334,560,136.52173913043478,560C142.21014492753622,560,147.8985507246377,560,153.58695652173913,560C159.27536231884056,560,164.963768115942,560,170.65217391304347,560C176.34057971014494,560,182.0289855072464,560,187.71739130434784,560C193.40579710144928,560,199.09420289855072,560,204.78260869565216,560C210.4710144927536,560,216.15942028985506,560,221.8478260869565,560C227.53623188405794,560,233.22463768115944,560,238.91304347826087,560C244.6014492753623,560,250.28985507246378,560.9252675833334,255.97826086956522,560C261.6666666666667,559.0747324166666,267.3550724637681,555.7590631545556,273.04347826086956,554.4483945000001C278.731884057971,553.1377258454445,284.42028985507244,552.0728172501111,290.1086956521739,552.1359880726667C295.7971014492753,552.1991588952222,301.4855072463768,554.6321498565555,307.17391304347825,554.8274194353334C312.8623188405797,555.0226890141112,318.5507246376812,553.9131038120555,324.2391304347826,553.3076055453333C329.92753623188406,552.7021072786112,335.6159420289855,551.6293993637778,341.30434782608694,551.194429835C346.9927536231884,550.7594603062223,352.6811594202899,550.6673786020556,358.3695652173913,550.6977883726667C364.05797101449275,550.7281981432777,369.74637681159425,551.3226048477777,375.4347826086957,551.3768884586666C381.1231884057971,551.4311720695555,386.81159420289856,551.5927122443888,392.5,551.023490038C398.18840579710144,550.4542678316111,403.8768115942029,549.5640260957778,409.5652173913043,547.9615552203334C415.25362318840575,546.359084344889,420.94202898550725,541.6502963487777,426.6304347826087,541.4086647853333C432.3188405797101,541.1670332218888,438.00724637681157,545.0408004922222,443.695652173913,546.5117658396666C449.38405797101444,547.9827311871111,455.072463768116,549.8681970790983,460.76086956521743,550.23445687C466.4492753623189,550.6007166609018,472.1376811594203,548.72255903766,477.82608695652175,548.7093245850766C483.5144927536232,548.6960901324933,489.2028985507247,550.4773090589462,494.8913043478261,550.1550501545C500.57971014492756,549.8327912500539,506.268115942029,549.3307826729061,511.95652173913044,546.7757711584001C517.6449275362319,544.220759643894,523.3333333333333,540.454065705015,529.0217391304348,534.8249810674633C534.7101449275362,529.1958964299117,540.3985507246376,519.1885334766317,546.0869565217391,513.00126333309C551.7753623188406,506.81399318954834,557.463768115942,503.69381774048946,563.1521739130435,497.70136020621334C568.840579710145,491.7089026719372,574.5289855072463,480.1334727647617,580.2173913043478,477.04651812743333C585.9057971014493,473.959563490105,591.5942028985507,479.62156883953276,597.2826086956522,479.1796323822433C602.9710144927537,478.73769592495387,608.659420289855,474.9087589954789,614.3478260869565,474.39489938369667C620.036231884058,473.88103977191446,625.7246376811594,476.2039979624667,631.4130434782609,476.09647471155C637.1014492753624,475.9889514606333,642.7898550724638,474.1741011104028,648.4782608695652,473.74975987819664C654.1666666666667,473.3254186459905,659.855072463768,472.92825357530273,665.5434782608695,473.5504273183133C671.231884057971,474.1726010613239,676.9202898550724,474.9902008237906,682.6086956521739,477.48280233626C688.2971014492754,479.97540384872946,693.9855072463768,485.6307420974256,699.6739130434783,488.50603639313C705.3623188405797,491.3813306888344,711.0507246376811,491.61773402142717,716.7391304347826,494.73456811048663C722.4275362318841,497.8514021995461,728.1159420289855,503.1346379027072,733.804347826087,507.2070409274867C739.4927536231885,511.27944395226615,745.18115942029,515.7368937154972,750.8695652173914,519.1689862591634C756.5579710144928,522.6010788028295,762.2463768115942,525.5084995781446,767.9347826086956,527.7995961894834C773.623188405797,530.0906928008222,785,532.9155659271967,785,532.9155659271967L785,552.84550111581C785,552.84550111581,773.623188405797,552.3623684169266,767.9347826086956,552.4370660966033C762.2463768115942,552.51176377628,756.5579710144928,553.1829047004401,750.8695652173914,553.29368719387C745.18115942029,553.4044696873,739.4927536231885,553.1689937223683,733.804347826087,553.1017610571834C728.1159420289855,553.0345283919984,722.4275362318841,552.9338925137299,716.7391304347826,552.89029120276C711.0507246376811,552.84668989179,705.3623188405797,552.9447112675966,699.6739130434783,552.8401531913634C693.9855072463768,552.7355951151301,688.2971014492754,552.4165831969906,682.6086956521739,552.26294274536C676.9202898550724,552.1093022937293,671.231884057971,552.1779973618183,665.5434782608695,551.91831048158C659.855072463768,551.6586236013417,654.1666666666667,551.0612944175073,648.4782608695652,550.70482146393C642.7898550724638,550.3483485103527,637.1014492753624,550.1706437886166,631.4130434782609,549.7794727601166C625.7246376811594,549.3883017316166,620.036231884058,547.7215428075533,614.3478260869565,548.35779529293C608.659420289855,548.9940477783066,602.9710144927537,554.0081247225427,597.2826086956522,553.5969876723766C591.5942028985507,553.1858506222105,585.9057971014493,547.0696799998383,580.2173913043478,545.8909729919333C574.5289855072463,544.7122659840282,568.840579710145,547.3009922347372,563.1521739130435,546.5247456249467C557.463768115942,545.7484990151562,551.7753623188406,542.2176537970538,546.0869565217391,541.2334933331899C540.3985507246376,540.249332869326,534.7101449275362,539.696069870895,529.0217391304348,540.6197828417634C523.3333333333333,541.5434958126317,517.6449275362319,545.1865599396106,511.95652173913044,546.7757711584001C506.268115942029,548.3649823771896,500.57971014492756,549.8327912500539,494.8913043478261,550.1550501545C489.2028985507247,550.4773090589462,483.5144927536232,548.6960901324933,477.82608695652175,548.7093245850766C472.1376811594203,548.72255903766,466.4492753623189,550.6007166609018,460.76086956521743,550.23445687C455.072463768116,549.8681970790983,449.38405797101444,547.9827311871111,443.695652173913,546.5117658396666C438.00724637681157,545.0408004922222,432.3188405797101,541.1670332218888,426.6304347826087,541.4086647853333C420.94202898550725,541.6502963487777,415.25362318840575,546.359084344889,409.5652173913043,547.9615552203334C403.8768115942029,549.5640260957778,398.18840579710144,550.4542678316111,392.5,551.023490038C386.81159420289856,551.5927122443888,381.1231884057971,551.4311720695555,375.4347826086957,551.3768884586666C369.74637681159425,551.3226048477777,364.05797101449275,550.7281981432777,358.3695652173913,550.6977883726667C352.6811594202899,550.6673786020556,346.9927536231884,550.7594603062223,341.30434782608694,551.194429835C335.6159420289855,551.6293993637778,329.92753623188406,552.7021072786112,324.2391304347826,553.3076055453333C318.5507246376812,553.9131038120555,312.8623188405797,555.0226890141112,307.17391304347825,554.8274194353334C301.4855072463768,554.6321498565555,295.7971014492753,552.1991588952222,290.1086956521739,552.1359880726667C284.42028985507244,552.0728172501111,278.731884057971,553.1377258454445,273.04347826086956,554.4483945000001C267.3550724637681,555.7590631545556,261.6666666666667,559.0747324166666,255.97826086956522,560C250.28985507246378,560.9252675833334,244.6014492753623,560,238.91304347826087,560C233.22463768115944,560,227.53623188405794,560,221.8478260869565,560C216.15942028985506,560,210.4710144927536,560,204.78260869565216,560C199.09420289855072,560,193.40579710144928,560,187.71739130434784,560C182.0289855072464,560,176.34057971014494,560,170.65217391304347,560C164.963768115942,560,159.27536231884056,560,153.58695652173913,560C147.8985507246377,560,142.21014492753622,560,136.52173913043478,560C130.83333333333334,560,125.14492753623189,560,119.45652173913044,560C113.76811594202898,560,108.07971014492753,560,102.39130434782608,560C96.70289855072463,560,91.01449275362319,560,85.32608695652173,560C79.63768115942028,560,73.94927536231884,560,68.26086956521739,560C62.57246376811594,560,56.884057971014485,560,51.19565217391304,560C45.507246376811594,560,39.81884057971014,560,34.130434782608695,560C28.44202898550725,560,22.753623188405797,560,17.065217391304348,560C11.376811594202898,560,0,560,0,560Z"><title>Download</title></path><path fill="#2ca02c" d="M0,560C0,560,11.376811594202898,560,17.065217391304348,560C22.753623188405797,560,28.44202898550725,560,34.130434782608695,560C39.81884057971014,560,45.507246376811594,560,51.19565217391304,560C56.884057971014485,560,62.57246376811594,560,68.26086956521739,560C73.94927536231884,560,79.63768115942028,560,85.32608695652173,560C91.01449275362319,560,96.70289855072463,560,102.39130434782608,560C108.07971014492753,560,113.76811594202898,560,119.45652173913044,560C125.14492753623189,560,130.83333333333334,560,136.52173913043478,560C142.21014492753622,560,147.8985507246377,560,153.58695652173913,560C159.27536231884056,560,164.963768115942,560,170.65217391304347,560C176.34057971014494,560,182.0289855072464,560,187.71739130434784,560C193.40579710144928,560,199.09420289855072,560,204.78260869565216,560C210.4710144927536,560,216.15942028985506,560,221.8478260869565,560C227.53623188405794,560,233.22463768115944,560,238.91304347826087,560C244.6014492753623,560,250.28985507246378,560.9252675833334,255.97826086956522,560C261.6666666666667,559.0747324166666,267.3550724637681,555.7590631545556,273.04347826086956,554.4483945000001C278.731884057971,553.1377258454445,284.42028985507244,552.0728172501111,290.1086956521739,552.1359880726667C295.7971014492753,552.1991588952222,301.4855072463768,554.6321498565555,307.17391304347825,554.8274194353334C312.8623188405797,555.0226890141112,318.5507246376812,553.9131038120555,324.2391304347826,553.3076055453333C329.92753623188406,552.7021072786112,335.6159420289855,551.6293993637778,341.30434782608694,551.194429835C346.9927536231884,550.7594603062223,352.6811594202899,550.6673786020556,358.3695652173913,550.6977883726667C364.05797101449275,550.7281981432777,369.74637681159425,551.3226048477777,375.4347826086957,551.3768884586666C381.1231884057971,551.4311720695555,386.81159420289856,551.5927122443888,392.5,551.023490038C398.18840579710144,550.4542678316111,403.8768115942029,549.5640260957778,409.5652173913043,547.9615552203334C415.25362318840575,546.359084344889,420.94202898550725,541.6502963487777,426.6304347826087,541.4086647853333C432.3188405797101,541.1670332218888,438.00724637681157,545.0408004922222,443.695652173913,546.5117658396666C449.38405797101444,547.9827311871111,455.072463768116,549.8681970790983,460.76086956521743,550.23445687C466.4492753623189,550.6007166609018,472.1376811594203,548.72255903766,477.82608695652175,548.7093245850766C483.5144927536232,548.6960901324933,489.2028985507247,550.4773090589462,494.8913043478261,550.1550501545C500.57971014492756,549.8327912500539,506.268115942029,548.3649823771896,511.95652173913044,546.7757711584001C517.6449275362319,545.1865599396106,523.3333333333333,541.5434958126317,529.0217391304348,540.6197828417634C534.7101449275362,539.696069870895,540.3985507246376,540.249332869326,546.0869565217391,541.2334933331899C551.7753623188406,542.2176537970538,557.463768115942,545.7484990151562,563.1521739130435,546.5247456249467C568.840579710145,547.3009922347372,574.5289855072463,544.7122659840282,580.2173913043478,545.8909729919333C585.9057971014493,547.0696799998383,591.5942028985507,553.1858506222105,597.2826086956522,553.5969876723766C602.9710144927537,554.0081247225427,608.659420289855,548.9940477783066,614.3478260869565,548.35779529293C620.036231884058,547.7215428075533,625.7246376811594,549.3883017316166,631.4130434782609,549.7794727601166C637.1014492753624,550.1706437886166,642.7898550724638,550.3483485103527,648.4782608695652,550.70482146393C654.1666666666667,551.0612944175073,659.855072463768,551.6586236013417,665.5434782608695,551.91831048158C671.231884057971,552.1779973618183,676.9202898550724,552.1093022937293,682.6086956521739,552.26294274536C688.2971014492754,552.4165831969906,693.9855072463768,552.7355951151301,699.6739130434783,552.8401531913634C705.3623188405797,552.9447112675966,711.0507246376811,552.84668989179,716.7391304347826,552.89029120276C722.4275362318841,552.9338925137299,728.1159420289855,553.0345283919984,733.804347826087,553.1017610571834C739.4927536231885,553.1689937223683,745.18115942029,553.4044696873,750.8695652173914,553.29368719387C756.5579710144928,553.1829047004401,762.2463768115942,552.51176377628,767.9347826086956,552.4370660966033C773.623188405797,552.3623684169266,785,552.84550111581,785,552.84550111581L785,560C785,560,773.623188405797,560,767.9347826086956,560C762.2463768115942,560,756.5579710144928,560,750.8695652173914,560C745.18115942029,560,739.4927536231885,560,733.804347826087,560C728.1159420289855,560,722.4275362318841,560,716.7391304347826,560C711.0507246376811,560,705.3623188405797,560,699.6739130434783,560C693.9855072463768,560,688.2971014492754,560,682.6086956521739,560C676.9202898550724,560,671.231884057971,560,665.5434782608695,560C659.855072463768,560,654.1666666666667,560,648.4782608695652,560C642.7898550724638,560,637.1014492753624,560,631.4130434782609,560C625.7246376811594,560,620.036231884058,560,614.3478260869565,560C608.659420289855,560,602.9710144927537,560,597.2826086956522,560C591.5942028985507,560,585.9057971014493,560,580.2173913043478,560C574.5289855072463,560,568.840579710145,560,563.1521739130435,560C557.463768115942,560,551.7753623188406,560,546.0869565217391,560C540.3985507246376,560,534.7101449275362,560,529.0217391304348,560C523.3333333333333,560,517.6449275362319,560,511.95652173913044,560C506.268115942029,560,500.57971014492756,560,494.8913043478261,560C489.2028985507247,560,483.5144927536232,560,477.82608695652175,560C472.1376811594203,560,466.4492753623189,560,460.76086956521743,560C455.072463768116,560,449.38405797101444,560,443.695652173913,560C438.00724637681157,560,432.3188405797101,560,426.6304347826087,560C420.94202898550725,560,415.25362318840575,560,409.5652173913043,560C403.8768115942029,560,398.18840579710144,560,392.5,560C386.81159420289856,560,381.1231884057971,560,375.4347826086957,560C369.74637681159425,560,364.05797101449275,560,358.3695652173913,560C352.6811594202899,560,346.9927536231884,560,341.30434782608694,560C335.6159420289855,560,329.92753623188406,560,324.2391304347826,560C318.5507246376812,560,312.8623188405797,560,307.17391304347825,560C301.4855072463768,560,295.7971014492753,560,290.1086956521739,560C284.42028985507244,560,278.731884057971,560,273.04347826086956,560C267.3550724637681,560,261.6666666666667,560,255.97826086956522,560C250.28985507246378,560,244.6014492753623,560,238.91304347826087,560C233.22463768115944,560,227.53623188405794,560,221.8478260869565,560C216.15942028985506,560,210.4710144927536,560,204.78260869565216,560C199.09420289855072,560,193.40579710144928,560,187.71739130434784,560C182.0289855072464,560,176.34057971014494,560,170.65217391304347,560C164.963768115942,560,159.27536231884056,560,153.58695652173913,560C147.8985507246377,560,142.21014492753622,560,136.52173913043478,560C130.83333333333334,560,125.14492753623189,560,119.45652173913044,560C113.76811594202898,560,108.07971014492753,560,102.39130434782608,560C96.70289855072463,560,91.01449275362319,560,85.32608695652173,560C79.63768115942028,560,73.94927536231884,560,68.26086956521739,560C62.57246376811594,560,56.884057971014485,560,51.19565217391304,560C45.507246376811594,560,39.81884057971014,560,34.130434782608695,560C28.44202898550725,560,22.753623188405797,560,17.065217391304348,560C11.376811594202898,560,0,560,0,560Z"><title>Other</title></path><path fill="#d62728" d="M0,560C0,560,11.376811594202898,560,17.065217391304348,560C22.753623188405797,560,28.44202898550725,560,34.130434782608695,560C39.81884057971014,560,45.507246376811594,560,51.19565217391304,560C56.884057971014485,560,62.57246376811594,560,68.26086956521739,560C73.94927536231884,560,79.63768115942028,560,85.32608695652173,560C91.01449275362319,560,96.70289855072463,560,102.39130434782608,560C108.07971014492753,560,113.76811594202898,560,119.45652173913044,560C125.14492753623189,560,130.83333333333334,560,136.52173913043478,560C142.21014492753622,560,147.8985507246377,560,153.58695652173913,560C159.27536231884056,560,164.963768115942,560,170.65217391304347,560C176.34057971014494,560,182.0289855072464,560,187.71739130434784,560C193.40579710144928,560,199.09420289855072,560,204.78260869565216,560C210.4710144927536,560,216.15942028985506,560,221.8478260869565,560C227.53623188405794,560,233.22463768115944,560,238.91304347826087,560C244.6014492753623,560,250.28985507246378,560.9252675833334,255.97826086956522,560C261.6666666666667,559.0747324166666,267.3550724637681,555.7590631545556,273.04347826086956,554.4483945000001C278.731884057971,553.1377258454445,284.42028985507244,552.0728172501111,290.1086956521739,552.1359880726667C295.7971014492753,552.1991588952222,301.4855072463768,554.6321498565555,307.17391304347825,554.8274194353334C312.8623188405797,555.0226890141112,318.5507246376812,553.9131038120555,324.2391304347826,553.3076055453333C329.92753623188406,552.7021072786112,335.6159420289855,551.6293993637778,341.30434782608694,551.194429835C346.9927536231884,550.7594603062223,352.6811594202899,550.6673786020556,358.3695652173913,550.6977883726667C364.05797101449275,550.7281981432777,369.74637681159425,551.3226048477777,375.4347826086957,551.3768884586666C381.1231884057971,551.4311720695555,386.81159420289856,551.5927122443888,392.5,551.023490038C398.18840579710144,550.4542678316111,403.8768115942029,549.5640260957778,409.5652173913043,547.9615552203334C415.25362318840575,546.359084344889,420.94202898550725,541.6502963487777,426.6304347826087,541.4086647853333C432.3188405797101,541.1670332218888,438.00724637681157,545.0408004922222,443.695652173913,546.5117658396666C449.38405797101444,547.9827311871111,455.072463768116,549.8681970790983,460.76086956521743,550.23445687C466.4492753623189,550.6007166609018,472.1376811594203,548.72255903766,477.82608695652175,548.7093245850766C483.5144927536232,548.6960901324933,489.2028985507247,550.4773090589462,494.8913043478261,550.1550501545C500.57971014492756,549.8327912500539,506.268115942029,549.3670988693067,511.95652173913044,546.7757711584001C517.6449275362319,544.1844434474934,523.3333333333333,541.099558156395,529.0217391304348,534.60708388906C534.7101449275362,528.1146096217251,540.3985507246376,515.1505450688644,546.0869565217391,507.82092555439C551.7753623188406,500.4913060399155,557.463768115942,497.054328070545,563.1521739130435,490.6293668022133C568.840579710145,484.20440553388164,574.5289855072463,472.6636011769505,580.2173913043478,469.2711579444C585.9057971014493,465.87871471184945,591.5942028985507,471.0969647514161,597.2826086956522,470.27470740691C602.9710144927537,469.4524500624039,608.659420289855,465.47197465053443,614.3478260869565,464.3376138773633C620.036231884058,463.2032531041922,625.7246376811594,464.7887384494667,631.4130434782609,463.4685427678833C637.1014492753624,462.14834708629996,642.7898550724638,459.20858566090277,648.4782608695652,456.41643978786334C654.1666666666667,453.6242939148239,659.855072463768,449.4125883291917,665.5434782608695,446.7156675296467C671.231884057971,444.01874673010167,676.9202898550724,440.94466542423504,682.6086956521739,440.2349149905934C688.2971014492754,439.5251645569517,693.9855072463768,443.15305245414777,699.6739130434783,442.45716492779667C705.3623188405797,441.76127740144557,711.0507246376811,441.6806415044606,716.7391304347826,436.0595898324867C722.4275362318841,430.43853816051285,728.1159420289855,417.855025757785,733.804347826087,408.7308548959533C739.4927536231885,399.60668403412166,745.18115942029,390.63742041374167,750.8695652173914,381.31456466149666C756.5579710144928,371.99170890925166,762.2463768115942,361.8708717477,767.9347826086956,352.79372038248334C773.623188405797,343.7165690172667,785,326.85165647019664,785,326.85165647019664L785,532.9155659271967C785,532.9155659271967,773.623188405797,530.0906928008222,767.9347826086956,527.7995961894834C762.2463768115942,525.5084995781446,756.5579710144928,522.6010788028295,750.8695652173914,519.1689862591634C745.18115942029,515.7368937154972,739.4927536231885,511.27944395226615,733.804347826087,507.2070409274867C728.1159420289855,503.1346379027072,722.4275362318841,497.8514021995461,716.7391304347826,494.73456811048663C711.0507246376811,491.61773402142717,705.3623188405797,491.3813306888344,699.6739130434783,488.50603639313C693.9855072463768,485.6307420974256,688.2971014492754,479.97540384872946,682.6086956521739,477.48280233626C676.9202898550724,474.9902008237906,671.231884057971,474.1726010613239,665.5434782608695,473.5504273183133C659.855072463768,472.92825357530273,654.1666666666667,473.3254186459905,648.4782608695652,473.74975987819664C642.7898550724638,474.1741011104028,637.1014492753624,475.9889514606333,631.4130434782609,476.09647471155C625.7246376811594,476.2039979624667,620.036231884058,473.88103977191446,614.3478260869565,474.39489938369667C608.659420289855,474.9087589954789,602.9710144927537,478.73769592495387,597.2826086956522,479.1796323822433C591.5942028985507,479.62156883953276,585.9057971014493,473.959563490105,580.2173913043478,477.04651812743333C574.5289855072463,480.1334727647617,568.840579710145,491.7089026719372,563.1521739130435,497.70136020621334C557.463768115942,503.69381774048946,551.7753623188406,506.81399318954834,546.0869565217391,513.00126333309C540.3985507246376,519.1885334766317,534.7101449275362,529.1958964299117,529.0217391304348,534.8249810674633C523.3333333333333,540.454065705015,517.6449275362319,544.220759643894,511.95652173913044,546.7757711584001C506.268115942029,549.3307826729061,500.57971014492756,549.8327912500539,494.8913043478261,550.1550501545C489.2028985507247,550.4773090589462,483.5144927536232,548.6960901324933,477.82608695652175,548.7093245850766C472.1376811594203,548.72255903766,466.4492753623189,550.6007166609018,460.76086956521743,550.23445687C455.072463768116,549.8681970790983,449.38405797101444,547.9827311871111,443.695652173913,546.5117658396666C438.00724637681157,545.0408004922222,432.3188405797101,541.1670332218888,426.6304347826087,541.4086647853333C420.94202898550725,541.6502963487777,415.25362318840575,546.359084344889,409.5652173913043,547.9615552203334C403.8768115942029,549.5640260957778,398.18840579710144,550.4542678316111,392.5,551.023490038C386.81159420289856,551.5927122443888,381.1231884057971,551.4311720695555,375.4347826086957,551.3768884586666C369.74637681159425,551.3226048477777,364.05797101449275,550.7281981432777,358.3695652173913,550.6977883726667C352.6811594202899,550.6673786020556,346.9927536231884,550.7594603062223,341.30434782608694,551.194429835C335.6159420289855,551.6293993637778,329.92753623188406,552.7021072786112,324.2391304347826,553.3076055453333C318.5507246376812,553.9131038120555,312.8623188405797,555.0226890141112,307.17391304347825,554.8274194353334C301.4855072463768,554.6321498565555,295.7971014492753,552.1991588952222,290.1086956521739,552.1359880726667C284.42028985507244,552.0728172501111,278.731884057971,553.1377258454445,273.04347826086956,554.4483945000001C267.3550724637681,555.7590631545556,261.6666666666667,559.0747324166666,255.97826086956522,560C250.28985507246378,560.9252675833334,244.6014492753623,560,238.91304347826087,560C233.22463768115944,560,227.53623188405794,560,221.8478260869565,560C216.15942028985506,560,210.4710144927536,560,204.78260869565216,560C199.09420289855072,560,193.40579710144928,560,187.71739130434784,560C182.0289855072464,560,176.34057971014494,560,170.65217391304347,560C164.963768115942,560,159.27536231884056,560,153.58695652173913,560C147.8985507246377,560,142.21014492753622,560,136.52173913043478,560C130.83333333333334,560,125.14492753623189,560,119.45652173913044,560C113.76811594202898,560,108.07971014492753,560,102.39130434782608,560C96.70289855072463,560,91.01449275362319,560,85.32608695652173,560C79.63768115942028,560,73.94927536231884,560,68.26086956521739,560C62.57246376811594,560,56.884057971014485,560,51.19565217391304,560C45.507246376811594,560,39.81884057971014,560,34.130434782608695,560C28.44202898550725,560,22.753623188405797,560,17.065217391304348,560C11.376811594202898,560,0,560,0,560Z"><title>Streaming</title></path><path fill="#8c564b" d="M0,367.0672549366667C0,367.0672549366667,11.376811594202898,371.644845705,17.065217391304348,372.44905679333334C22.753623188405797,373.25326788166666,28.44202898550725,373.97452939,34.130434782608695,371.89252146666666C39.81884057971014,369.81051354333334,45.507246376811594,368.6404115255555,51.19565217391304,359.9570092533333C56.884057971014485,351.2736069811111,62.57246376811594,328.1357251433333,68.26086956521739,319.79210783333326C73.94927536231884,311.44849052333325,79.63768115942028,302.8726504961111,85.32608695652173,309.89530539333333C91.01449275362319,316.9179602905556,96.70289855072463,349.80512391533335,102.39130434782608,361.92803721666667C108.07971014492753,374.050950518,113.76811594202898,378.03759351827773,119.45652173913044,382.6327852013333C125.14492753623189,387.2279768843889,130.83333333333334,382.68763108916676,136.52173913043478,389.4991873150001C142.21014492753622,396.3107435408334,147.8985507246377,414.63335548016664,153.58695652173913,423.5021225563333C159.27536231884056,432.37088963249994,164.963768115942,437.64091666905557,170.65217391304347,442.71178977200003C176.34057971014494,447.7826628749445,182.0289855072464,448.80755227583336,187.71739130434784,453.927361174C193.40579710144928,459.04717007216664,199.09420289855072,466.7382008687223,204.78260869565216,473.43064316100003C210.4710144927536,480.1230854532778,216.15942028985506,488.374233053,221.8478260869565,494.08201492766665C227.53623188405794,499.7897968023333,233.22463768115944,502.67986543561113,238.91304347826087,507.677334409C244.6014492753623,512.674803382389,250.28985507246378,518.9712846278334,255.97826086956522,524.066828768C261.6666666666667,529.1623729081667,267.3550724637681,534.9484940166112,273.04347826086956,538.25059925C278.731884057971,541.5527044833889,284.42028985507244,541.7977205450834,290.1086956521739,543.8794601683334C295.7971014492753,545.9611997915833,301.4855072463768,549.7358826425667,307.17391304347825,550.7410369895C312.8623188405797,551.7461913364333,318.5507246376812,550.2600311493834,324.2391304347826,549.9103862499334C329.92753623188406,549.5607413504833,335.6159420289855,548.9479960401889,341.30434782608694,548.6431675928C346.9927536231884,548.338339145411,352.6811594202899,548.094201692061,358.3695652173913,548.0814155656C364.05797101449275,548.0686294391389,369.74637681159425,548.6102853722556,375.4347826086957,548.5664508340334C381.1231884057971,548.5226162958112,386.81159420289856,548.3460272179167,392.5,547.8184083362667C398.18840579710144,547.2907894546166,403.8768115942029,546.8331694457722,409.5652173913043,545.4007375441333C415.25362318840575,543.9683056424944,420.94202898550725,539.3949182539167,426.6304347826087,539.2238169264333C432.3188405797101,539.0527155989499,438.00724637681157,542.8507997512445,443.695652173913,544.3741295792333C449.38405797101444,545.8974594072222,455.072463768116,547.9713607056539,460.76086956521743,548.3637958943666C466.4492753623189,548.7562310830793,472.1376811594203,546.6811025242156,477.82608695652175,546.72874071151C483.5144927536232,546.7763788988044,489.2028985507247,548.875212566835,494.8913043478261,548.6496250181333C500.57971014492756,548.4240374694316,506.268115942029,547.9219570421178,511.95652173913044,545.3752154193C517.6449275362319,542.8284737964823,523.3333333333333,539.7677098883338,529.0217391304348,533.3691752812266C534.7101449275362,526.9706406741194,540.3985507246376,514.2335595601867,546.0869565217391,506.98400777665665C551.7753623188406,499.7344559931267,557.463768115942,496.2863533621856,563.1521739130435,489.8718645800467C568.840579710145,483.4573757979078,574.5289855072463,472.03848757294054,580.2173913043478,468.4970750838233C585.9057971014493,464.95566259470604,591.5942028985507,469.62388505940055,597.2826086956522,468.6233896453433C602.9710144927537,467.62289423128607,608.659420289855,463.76906819446003,614.3478260869565,462.49410259948C620.036231884058,461.2191370045,625.7246376811594,462.53461507426834,631.4130434782609,460.9735960754633C637.1014492753624,459.4125770766583,642.7898550724638,456.22083570579053,648.4782608695652,453.12798860665C654.1666666666667,450.0351415075094,659.855072463768,445.47747185279337,665.5434782608695,442.41651348062004C671.231884057971,439.3555551084467,676.9202898550724,435.8026439461256,682.6086956521739,434.76223837361005C688.2971014492754,433.7218328010945,693.9855072463768,437.3804241757533,699.6739130434783,436.17408004552664C705.3623188405797,434.96773591529995,711.0507246376811,433.59062412649274,716.7391304347826,427.52417359224995C722.4275362318841,421.45772305800716,728.1159420289855,409.0774573752067,733.804347826087,399.77537684007C739.4927536231885,390.47329630493334,745.18115942029,381.2227690595994,750.8695652173914,371.71169038142995C756.5579710144928,362.2006117032605,762.2463768115942,352.1470737925972,767.9347826086956,342.7089047710533C773.623188405797,333.2707357495094,785,315.08267625216666,785,315.08267625216666L785,326.85165647019664C785,326.85165647019664,773.623188405797,343.7165690172667,767.9347826086956,352.79372038248334C762.2463768115942,361.8708717477,756.5579710144928,371.99170890925166,750.8695652173914,381.31456466149666C745.18115942029,390.63742041374167,739.4927536231885,399.60668403412166,733.804347826087,408.7308548959533C728.1159420289855,417.855025757785,722.4275362318841,430.43853816051285,716.7391304347826,436.0595898324867C711.0507246376811,441.6806415044606,705.3623188405797,441.76127740144557,699.6739130434783,442.45716492779667C693.9855072463768,443.15305245414777,688.2971014492754,439.5251645569517,682.6086956521739,440.2349149905934C676.9202898550724,440.94466542423504,671.231884057971,444.01874673010167,665.5434782608695,446.7156675296467C659.855072463768,449.4125883291917,654.1666666666667,453.6242939148239,648.4782608695652,456.41643978786334C642.7898550724638,459.20858566090277,637.1014492753624,462.14834708629996,631.4130434782609,463.4685427678833C625.7246376811594,464.7887384494667,620.036231884058,463.2032531041922,614.3478260869565,464.3376138773633C608.659420289855,465.47197465053443,602.9710144927537,469.4524500624039,597.2826086956522,470.27470740691C591.5942028985507,471.0969647514161,585.9057971014493,465.87871471184945,580.2173913043478,469.2711579444C574.5289855072463,472.6636011769505,568.840579710145,484.20440553388164,563.1521739130435,490.6293668022133C557.463768115942,497.054328070545,551.7753623188406,500.4913060399155,546.0869565217391,507.82092555439C540.3985507246376,515.1505450688644,534.7101449275362,528.1146096217251,529.0217391304348,534.60708388906C523.3333333333333,541.099558156395,517.6449275362319,544.1844434474934,511.95652173913044,546.7757711584001C506.268115942029,549.3670988693067,500.57971014492756,549.8327912500539,494.8913043478261,550.1550501545C489.2028985507247,550.4773090589462,483.5144927536232,548.6960901324933,477.82608695652175,548.7093245850766C472.1376811594203,548.72255903766,466.4492753623189,550.6007166609018,460.76086956521743,550.23445687C455.072463768116,549.8681970790983,449.38405797101444,547.9827311871111,443.695652173913,546.5117658396666C438.00724637681157,545.0408004922222,432.3188405797101,541.1670332218888,426.6304347826087,541.4086647853333C420.94202898550725,541.6502963487777,415.25362318840575,546.359084344889,409.5652173913043,547.9615552203334C403.8768115942029,549.5640260957778,398.18840579710144,550.4542678316111,392.5,551.023490038C386.81159420289856,551.5927122443888,381.1231884057971,551.4311720695555,375.4347826086957,551.3768884586666C369.74637681159425,551.3226048477777,364.05797101449275,550.7281981432777,358.3695652173913,550.6977883726667C352.6811594202899,550.6673786020556,346.9927536231884,550.7594603062223,341.30434782608694,551.194429835C335.6159420289855,551.6293993637778,329.92753623188406,552.7021072786112,324.2391304347826,553.3076055453333C318.5507246376812,553.9131038120555,312.8623188405797,555.0226890141112,307.17391304347825,554.8274194353334C301.4855072463768,554.6321498565555,295.7971014492753,552.1991588952222,290.1086956521739,552.1359880726667C284.42028985507244,552.0728172501111,278.731884057971,553.1377258454445,273.04347826086956,554.4483945000001C267.3550724637681,555.7590631545556,261.6666666666667,559.0747324166666,255.97826086956522,560C250.28985507246378,560.9252675833334,244.6014492753623,560,238.91304347826087,560C233.22463768115944,560,227.53623188405794,560,221.8478260869565,560C216.15942028985506,560,210.4710144927536,560,204.78260869565216,560C199.09420289855072,560,193.40579710144928,560,187.71739130434784,560C182.0289855072464,560,176.34057971014494,560,170.65217391304347,560C164.963768115942,560,159.27536231884056,560,153.58695652173913,560C147.8985507246377,560,142.21014492753622,560,136.52173913043478,560C130.83333333333334,560,125.14492753623189,560,119.45652173913044,560C113.76811594202898,560,108.07971014492753,560,102.39130434782608,560C96.70289855072463,560,91.01449275362319,560,85.32608695652173,560C79.63768115942028,560,73.94927536231884,560,68.26086956521739,560C62.57246376811594,560,56.884057971014485,560,51.19565217391304,560C45.507246376811594,560,39.81884057971014,560,34.130434782608695,560C28.44202898550725,560,22.753623188405797,560,17.065217391304348,560C11.376811594202898,560,0,560,0,560Z"><title>Vinyl</title></path></g><g id="xAxis" transform="translate(0,560)" fill="none" font-size="10" font-family="sans-serif" text-anchor="middle"><path class="domain" stroke="currentColor" d="M0,0H785"/><g class="tick" opacity="1" transform="translate(34.130434782608695,0)"><line stroke="currentColor" y2="6"/><text fill="currentColor" y="9" dy="0.71em">1,975</text></g><g class="tick" opacity="1" transform="translate(119.45652173913044,0)"><line stroke="currentColor" y2="6"/><text fill="currentColor" y="9" dy="0.71em">1,980</text></g><g class="tick" opacity="1" transform="translate(204.78260869565216,0)"><line stroke="currentColor" y2="6"/><text fill="currentColor" y="9" dy="0.71em">1,985</text></g><g class="tick" opacity="1" transform="translate(290.1086956521739,0)"><line stroke="currentColor" y2="6"/><text fill="currentColor" y="9" dy="0.71em">1,990</text></g><g class="tick" opacity="1" transform="translate(375.4347826086957,0)"><line stroke="currentColor" y2="6"/><text fill="currentColor" y="9" dy="0.71em">1,995</text></g><g class="tick" opacity="1" transform="translate(460.76086956521743,0)"><line stroke="currentColor" y2="6"/><text fill="currentColor" y="9" dy="0.71em">2,000</text></g><g class="tick" opacity="1" transform="translate(546.0869565217391,0)"><line stroke="currentColor" y2="6"/><text fill="currentColor" y="9" dy="0.71em">2,005</text></g><g class="tick" opacity="1" transform="translate(631.4130434782609,0)"><line stroke="currentColor" y2="6"/><text fill="currentColor" y="9" dy="0.71em">2,010</text></g><g class="tick" opacity="1" transform="translate(716.7391304347826,0)"><line stroke="currentColor" y2="6"/><text fill="currentColor" y="9" dy="0.71em">2,015</text></g></g><text y="556" x="785" text-anchor="end" style="font-family: Arial, sans-serif; font-size: 12px; fill: rgb(123, 123, 123); font-weight: bold;">Year</text><text x="4" text-anchor="start" dominant-baseline="hanging" style="font-family: Arial, sans-serif; font-size: 12px; fill: rgb(123, 123, 123); font-weight: bold;">Revenues in millions (Adjusted for inflation)</text><g id="labels"><text x="255.97826086956522" y="437.2745549165" text-anchor="middle" alignment-baseline="middle" style="font-family: Arial, sans-serif; font-size: 10px; fill: black; font-weight: bold;">Tape</text><text x="443.695652173913" y="271.2096379111" text-anchor="middle" alignment-baseline="middle" style="font-family: Arial, sans-serif; font-size: 10px; fill: black; font-weight: bold;">Disc</text><text x="665.5434782608695" y="512.7343688999466" text-anchor="middle" alignment-baseline="middle" style="font-family: Arial, sans-serif; font-size: 10px; fill: black; font-weight: bold;">Download</text><text x="529.0217391304348" y="550.3098914208817" text-anchor="middle" alignment-baseline="middle" style="font-family: Arial, sans-serif; font-size: 10px; fill: black; font-weight: bold;">Other</text><text x="785" y="429.88361119869666" text-anchor="end" alignment-baseline="middle" style="font-family: Arial, sans-serif; font-size: 10px; fill: black; font-weight: bold;">Streaming</text><text x="85.32608695652173" y="434.9476526966667" text-anchor="middle" alignment-baseline="middle" style="font-family: Arial, sans-serif; font-size: 10px; fill: black; font-weight: bold;">Vinyl</text></g></g><text x="4" y="4" style="font-family: Arial, sans-serif; font-size: 12px; fill: black; font-weight: bold; dominant-baseline: hanging;"/></g></g></svg>