<svg xmlns="http://www.w3.org/2000/svg" width="805" height="600"><rect width="805" height="600" x="0" y="0" fill="#FFFFFF" id="background"/><g id="viz"><g transform="translate(0,0)"><g transform="translate(10,20)"><g><path fill="#9467bd" d="M0,144.53058019715004C0,144.53058019715004,11.376811594202898,146.4089322847278,17.065217391304348,146.91748071396668C22.753623188405797,147.42602914320557,28.44202898550725,149.31431665632232,34.130434782608695,147.58187077258341C39.81884057971014,145.8494248888445,45.507246376811594,143.1707014519639,51.19565217391304,136.52280541153334C56.884057971014485,129.87490937110277,62.57246376811594,115.28107196775557,68.26086956521739,107.69449453000001C73.94927536231884,100.10791709224446,79.63768115942028,87.45284838500005,85.32608695652173,91.00334078500005C91.01449275362319,94.55383318500004,96.70289855072463,119.71113786683334,102.39130434782608,128.99744893C108.07971014492753,138.28375999316665,113.76811594202898,143.2864446984444,119.45652173913044,146.72120716399996C125.14492753623189,150.15596962955553,130.83333333333334,146.0852891995389,136.52173913043478,149.60602372333335C142.21014492753622,153.1267582471278,147.8985507246377,164.83978941163613,153.58695652173913,167.84561430676666C159.27536231884056,170.8514392018972,164.963768115942,168.69952091618882,170.65217391304347,167.6409730941166C176.34057971014494,166.58242527204436,182.0289855072464,159.3235540361305,187.71739130434784,161.4943273743333C193.40579710144928,163.6651007125361,199.09420289855072,173.52613367230555,204.78260869565216,180.66561312333334C210.4710144927536,187.80509257436114,216.15942028985506,198.17629184787776,221.8478260869565,204.3312040805C227.53623188405794,210.4861163131222,233.22463768115944,213.62023841769724,238.91304347826087,217.59508651906668C244.6014492753623,221.56993462043613,250.28985507246378,223.41125844189446,255.97826086956522,228.1802926887167C261.6666666666667,232.94932693553892,267.3550724637681,239.95325307803893,273.04347826086956,246.20929200000003C278.731884057971,252.46533092196114,284.42028985507244,256.75825980945007,290.1086956521739,265.7165262204834C295.7971014492753,274.6747926315167,301.4855072463768,291.4868436151194,307.17391304347825,299.9588904662C312.8623188405797,308.43093731728055,318.5507246376812,309.3214024621778,324.2391304347826,316.54880732696665C329.92753623188406,323.7762121917555,335.6159420289855,332.73306288010826,341.30434782608694,343.3233196549333C346.9927536231884,353.91357642975834,352.6811594202899,368.9321687046529,358.3695652173913,380.09034797591676C364.05797101449275,391.2485272471806,369.74637681159425,402.5459463444805,375.4347826086957,410.27239528251664C381.1231884057971,417.99884422055277,386.81159420289856,422.9530972054306,392.5,426.44904160413336C398.18840579710144,429.9449860028361,403.8768115942029,426.5395693309139,409.5652173913043,431.2480616747333C415.25362318840575,435.95655401855277,420.94202898550725,445.6154148559555,426.6304347826087,454.69999566704996C432.3188405797101,463.7845764781444,438.00724637681157,479.10246102796964,443.695652173913,485.7555465412999C449.38405797101444,492.4086320546302,455.072463768116,494.5781724064281,460.76086956521743,494.61850874703174C466.4492753623189,494.65884508763537,472.1376811594203,489.95774923985743,477.82608695652175,485.9975645849216C483.5144927536232,482.0373799299857,489.2028985507247,476.18499179486474,494.8913043478261,470.8574008174167C500.57971014492756,465.52980983996866,506.268115942029,457.9173252514117,511.95652173913044,454.03201872023334C517.6449275362319,450.146712189055,523.3333333333333,454.1712381801059,529.0217391304348,447.5455616303467C534.7101449275362,440.9198850805875,540.3985507246376,424.91159035282226,546.0869565217391,414.27795942167836C551.7753623188406,403.64432849053446,557.463768115942,395.8471742307385,563.1521739130435,383.74377604348325C568.840579710145,371.640377856228,574.5289855072463,353.9171294457011,580.2173913043478,341.65757029814665C585.9057971014493,329.3980111505922,591.5942028985507,318.56819466346195,597.2826086956522,310.1864211581567C602.9710144927537,301.80464765285143,608.659420289855,296.91276459365116,614.3478260869565,291.366929266315C620.036231884058,285.8210939389789,625.7246376811594,280.84836150675693,631.4130434782609,276.91140919414C637.1014492753624,272.97445688152305,642.7898550724638,271.63739754554865,648.4782608695652,267.74521539061334C654.1666666666667,263.853033235678,659.855072463768,257.3764854345086,665.5434782608695,253.5583162645283C671.231884057971,249.740147094548,676.9202898550724,247.00902079594215,682.6086956521739,244.8362003707316C688.2971014492754,242.66337994552106,693.9855072463768,242.66503752462032,699.6739130434783,240.52139371326504C705.3623188405797,238.37774990190977,711.0507246376811,236.401497864875,716.7391304347826,231.9743375026C722.4275362318841,227.547177140325,728.1159420289855,219.49583962656388,733.804347826087,213.958431539615C739.4927536231885,208.4210234526661,745.18115942029,204.46596287110387,750.8695652173914,198.74988898090663C756.5579710144928,193.0338150907094,762.2463768115942,185.33400408326605,767.9347826086956,179.66198819843163C773.623188405797,173.9899723135972,785,164.71779367190004,785,164.71779367190004L785,164.71779367190004C785,164.71779367190004,773.623188405797,173.9899723135972,767.9347826086956,179.66198819843163C762.2463768115942,185.33400408326605,756.5579710144928,193.0338150907094,750.8695652173914,198.74988898090663C745.18115942029,204.46596287110387,739.4927536231885,208.4210234526661,733.804347826087,213.958431539615C728.1159420289855,219.49583962656388,722.4275362318841,227.547177140325,716.7391304347826,231.9743375026C711.0507246376811,236.401497864875,705.3623188405797,238.37774990190977,699.6739130434783,240.52139371326504C693.9855072463768,242.66503752462032,688.2971014492754,242.66337994552106,682.6086956521739,244.8362003707316C676.9202898550724,247.00902079594215,671.231884057971,249.740147094548,665.5434782608695,253.5583162645283C659.855072463768,257.3764854345086,654.1666666666667,263.853033235678,648.4782608695652,267.74521539061334C642.7898550724638,271.63739754554865,637.1014492753624,272.97445688152305,631.4130434782609,276.91140919414C625.7246376811594,280.84836150675693,620.036231884058,285.8169379379028,614.3478260869565,291.366929266315C608.659420289855,296.91692059472723,602.9710144927537,301.8151955020475,597.2826086956522,310.21135716461333C591.5942028985507,318.60751882717915,585.9057971014493,329.4702489713872,580.2173913043478,341.74389924171C574.5289855072463,354.01754951203276,568.840579710145,371.69756005284967,563.1521739130435,383.85325878654993C557.463768115942,396.0089575202502,551.7753623188406,403.93796959680117,546.0869565217391,414.6780916439117C540.3985507246376,425.4182136910223,534.7101449275362,441.1508979939931,529.0217391304348,448.2939910692134C523.3333333333333,455.4370841444337,517.6449275362319,452.6166170696995,511.95652173913044,457.53665009523337C506.268115942029,462.45668312076725,500.57971014492756,471.0306122620797,494.8913043478261,477.81418922241664C489.2028985507247,484.59776618275356,483.5144927536232,491.7965314081574,477.82608695652175,498.2381118572549C472.1376811594203,504.6796923063524,466.4492753623189,511.9223205900554,460.76086956521743,516.4636719170018C455.072463768116,521.0050232439481,449.38405797101444,526.543663592203,443.695652173913,525.4862198189333C438.00724637681157,524.4287760456635,432.3188405797101,515.5659924926389,426.6304347826087,510.1190092773834C420.94202898550725,504.6720260621278,415.25362318840575,493.47655093833055,409.5652173913043,492.80432052739997C403.8768115942029,492.1320901164694,398.18840579710144,503.271238950725,392.5,506.0856268118C386.81159420289856,508.90001467287505,381.1231884057971,508.8780328655528,375.4347826086957,509.69064769385005C369.74637681159425,510.5032625221473,364.05797101449275,516.5734480564583,358.3695652173913,510.9613157815834C352.6811594202899,505.34918350670836,346.9927536231884,484.2191803147028,341.30434782608694,476.01785404459997C335.6159420289855,467.81652777449716,329.92753623188406,467.37243346725546,324.2391304347826,461.75335816096657C318.5507246376812,456.1342828546777,312.8623188405797,446.60019312266945,307.17391304347825,442.3034022068667C301.4855072463768,438.0066112910639,295.7971014492753,440.2683322006278,290.1086956521739,435.97261266615004C284.42028985507244,431.6768931316723,278.731884057971,422.23038037907224,273.04347826086956,416.529085C267.3550724637681,410.8277896209278,261.6666666666667,408.8922036645056,255.97826086956522,401.7648403917167C250.28985507246378,394.6374771189278,244.6014492753623,383.9966331679139,238.91304347826087,373.7649053632667C233.22463768115944,363.53317755861946,227.53623188405794,350.2754812310444,221.8478260869565,340.3744735638333C216.15942028985506,330.4734658966222,210.4710144927536,321.3606190688055,204.78260869565216,314.35885935999994C199.09420289855072,307.3570996511944,193.40579710144928,304.74022952642497,187.71739130434784,298.36391531099997C182.0289855072464,291.987601095575,176.34057971014494,283.21887524435556,170.65217391304347,276.10097406745C164.963768115942,268.98307289054446,159.27536231884056,261.69114332886386,153.58695652173913,255.65650824956666C147.8985507246377,249.62187317026945,142.21014492753622,243.1839852937056,136.52173913043478,239.8931635916667C130.83333333333334,236.6023418896278,125.14492753623189,237.0720072548333,119.45652173913044,235.9115780373333C113.76811594202898,234.7511488198333,108.07971014492753,235.76719052483335,102.39130434782608,232.9305882866667C96.70289855072463,230.09398604850006,91.01449275362319,222.36412710555558,85.32608695652173,218.89196460833335C79.63768115942028,215.41980211111112,73.94927536231884,211.34057343108884,68.26086956521739,212.09761330333328C62.57246376811594,212.8546531755777,56.884057971014485,221.39869761000836,51.19565217391304,223.43420384180004C45.507246376811594,225.46971007359173,39.81884057971014,223.96108865448886,34.130434782608695,224.3106506940833C28.44202898550725,224.66021273367775,22.753623188405797,225.8272387384611,17.065217391304348,225.53157607936666C11.376811594202898,225.23591342027223,0,222.53667473951666,0,222.53667473951666Z"><title>Tape</title></path><path fill="#1f77b4" d="M0,144.53058019715004C0,144.53058019715004,11.376811594202898,146.4089322847278,17.065217391304348,146.91748071396668C22.753623188405797,147.42602914320557,28.44202898550725,149.31431665632232,34.130434782608695,147.58187077258341C39.81884057971014,145.8494248888445,45.507246376811594,143.1707014519639,51.19565217391304,136.52280541153334C56.884057971014485,129.87490937110277,62.57246376811594,115.28107196775557,68.26086956521739,107.69449453000001C73.94927536231884,100.10791709224446,79.63768115942028,87.45284838500005,85.32608695652173,91.00334078500005C91.01449275362319,94.55383318500004,96.70289855072463,119.71113786683334,102.39130434782608,128.99744893C108.07971014492753,138.28375999316665,113.76811594202898,143.2864446984444,119.45652173913044,146.72120716399996C125.14492753623189,150.15596962955553,130.83333333333334,146.0852891995389,136.52173913043478,149.60602372333335C142.21014492753622,153.1267582471278,147.8985507246377,165.01148230989722,153.58695652173913,167.84561430676666C159.27536231884056,170.6797463036361,164.963768115942,168.6578437785111,170.65217391304347,166.61081570455002C176.34057971014494,164.56378763058893,182.0289855072464,156.81995118025839,187.71739130434784,155.56344586300006C193.40579710144928,154.30694054574172,199.09420289855072,159.38110121752783,204.78260869565216,159.07178380100004C210.4710144927536,158.76246638447225,216.15942028985506,157.9007671563778,221.8478260869565,153.70754136383337C227.53623188405794,149.51431557128893,233.22463768115944,139.14668787699173,238.91304347826087,133.9124290457334C244.6014492753623,128.67817021447507,250.28985507246378,124.33380750890555,255.97826086956522,122.30198837628332C261.6666666666667,120.27016924366109,267.3550724637681,124.1207043956833,273.04347826086956,121.72151424999998C278.731884057971,119.32232410431666,284.42028985507244,110.12082741341113,290.1086956521739,107.90684750218335C295.7971014492753,105.69286759095557,301.4855072463768,111.72927135150277,307.17391304347825,108.43763478263332C312.8623188405797,105.14599821376387,318.5507246376812,94.12574829470555,324.2391304347826,88.15702808896665C329.92753623188406,82.18830788322776,335.6159420289855,81.13146826569165,341.30434782608694,72.6253135482C346.9927536231884,64.11915883070834,352.6811594202899,42.74501818535283,358.3695652173913,37.12009978401673C364.05797101449275,31.495181382680627,369.74637681159425,38.10702285010838,375.4347826086957,38.875803140183365C381.1231884057971,39.64458343025835,386.81159420289856,39.44601254504168,392.5,41.73278152446667C398.18840579710144,44.01955050389165,403.8768115942029,54.701079329302694,409.5652173913043,52.59641701673325C415.25362318840575,50.4917547041638,420.94202898550725,34.72289219178886,426.6304347826087,29.104807649049977C432.3188405797101,23.4867231063111,438.00724637681157,18.422023705580795,443.695652173913,18.887909760299976C449.38405797101444,19.353795815019158,455.072463768116,26.966337461705898,460.76086956521743,31.900123977365062C466.4492753623189,36.83391049302423,472.1376811594203,42.00141021786304,477.82608695652175,48.49062885425498C483.5144927536232,54.97984749064692,489.2028985507247,64.27744638408144,494.8913043478261,70.83543579571672C500.57971014492756,77.393425207352,506.268115942029,85.46527392135052,511.95652173913044,87.83856532406662C517.6449275362319,90.21185672678273,523.3333333333333,84.33062574390027,529.0217391304348,85.07518421201333C534.7101449275362,85.81974268012638,540.3985507246376,88.81534586916446,546.0869565217391,92.305916132745C551.7753623188406,95.79648639632553,557.463768115942,100.27739584193517,563.1521739130435,106.01860579349658C568.840579710145,111.75981574505798,574.5289855072463,118.02093806090778,580.2173913043478,126.75317584211336C585.9057971014493,135.48541362331895,591.5942028985507,151.01636623222143,597.2826086956522,158.41203248073003C602.9710144927537,165.80769872923864,608.659420289855,166.8521475997328,614.3478260869565,171.12717333316502C620.036231884058,175.40219906659723,625.7246376811594,181.6862535675114,631.4130434782609,184.06218688132333C637.1014492753624,186.43812019513527,642.7898550724638,184.5834381602419,648.4782608695652,185.38277321603664C654.1666666666667,186.18210827183137,659.855072463768,188.10098641828472,665.5434782608695,188.85819721609167C671.231884057971,189.61540801389862,676.9202898550724,188.79362315018332,682.6086956521739,189.92603800287833C688.2971014492754,191.05845285557334,693.9855072463768,194.71538665113303,699.6739130434783,195.65268633226165C705.3623188405797,196.58998601339027,711.0507246376811,197.1891262616178,716.7391304347826,195.54983608965003C722.4275362318841,193.91054591768227,728.1159420289855,189.5816177486428,733.804347826087,185.81694530045502C739.4927536231885,182.05227285226724,745.18115942029,176.75680618849557,750.8695652173914,172.96180140052334C756.5579710144928,169.1667966125511,762.2463768115942,166.81306970933113,767.9347826086956,163.04691657262168C773.623188405797,159.28076343591223,785,150.36488258026662,785,150.36488258026662L785,164.71779367190004C785,164.71779367190004,773.623188405797,173.9899723135972,767.9347826086956,179.66198819843163C762.2463768115942,185.33400408326605,756.5579710144928,193.0338150907094,750.8695652173914,198.74988898090663C745.18115942029,204.46596287110387,739.4927536231885,208.4210234526661,733.804347826087,213.958431539615C728.1159420289855,219.49583962656388,722.4275362318841,227.547177140325,716.7391304347826,231.9743375026C711.0507246376811,236.401497864875,705.3623188405797,238.37774990190977,699.6739130434783,240.52139371326504C693.9855072463768,242.66503752462032,688.2971014492754,242.66337994552106,682.6086956521739,244.8362003707316C676.9202898550724,247.00902079594215,671.231884057971,249.740147094548,665.5434782608695,253.5583162645283C659.855072463768,257.3764854345086,654.1666666666667,263.853033235678,648.4782608695652,267.74521539061334C642.7898550724638,271.63739754554865,637.1014492753624,272.97445688152305,631.4130434782609,276.91140919414C625.7246376811594,280.84836150675693,620.036231884058,285.8210939389789,614.3478260869565,291.366929266315C608.659420289855,296.91276459365116,602.9710144927537,301.80464765285143,597.2826086956522,310.1864211581567C591.5942028985507,318.56819466346195,585.9057971014493,329.3980111505922,580.2173913043478,341.65757029814665C574.5289855072463,353.9171294457011,568.840579710145,371.640377856228,563.1521739130435,383.74377604348325C557.463768115942,395.8471742307385,551.7753623188406,403.64432849053446,546.0869565217391,414.27795942167836C540.3985507246376,424.91159035282226,534.7101449275362,440.9198850805875,529.0217391304348,447.5455616303467C523.3333333333333,454.1712381801059,517.6449275362319,450.146712189055,511.95652173913044,454.03201872023334C506.268115942029,457.9173252514117,500.57971014492756,465.52980983996866,494.8913043478261,470.8574008174167C489.2028985507247,476.18499179486474,483.5144927536232,482.0373799299857,477.82608695652175,485.9975645849216C472.1376811594203,489.95774923985743,466.4492753623189,494.65884508763537,460.76086956521743,494.61850874703174C455.072463768116,494.5781724064281,449.38405797101444,492.4086320546302,443.695652173913,485.7555465412999C438.00724637681157,479.10246102796964,432.3188405797101,463.7845764781444,426.6304347826087,454.69999566704996C420.94202898550725,445.6154148559555,415.25362318840575,435.95655401855277,409.5652173913043,431.2480616747333C403.8768115942029,426.5395693309139,398.18840579710144,429.9449860028361,392.5,426.44904160413336C386.81159420289856,422.9530972054306,381.1231884057971,417.99884422055277,375.4347826086957,410.27239528251664C369.74637681159425,402.5459463444805,364.05797101449275,391.2485272471806,358.3695652173913,380.09034797591676C352.6811594202899,368.9321687046529,346.9927536231884,353.91357642975834,341.30434782608694,343.3233196549333C335.6159420289855,332.73306288010826,329.92753623188406,323.7762121917555,324.2391304347826,316.54880732696665C318.5507246376812,309.3214024621778,312.8623188405797,308.43093731728055,307.17391304347825,299.9588904662C301.4855072463768,291.4868436151194,295.7971014492753,274.6747926315167,290.1086956521739,265.7165262204834C284.42028985507244,256.75825980945007,278.731884057971,252.46533092196114,273.04347826086956,246.20929200000003C267.3550724637681,239.95325307803893,261.6666666666667,232.94932693553892,255.97826086956522,228.1802926887167C250.28985507246378,223.41125844189446,244.6014492753623,221.56993462043613,238.91304347826087,217.59508651906668C233.22463768115944,213.62023841769724,227.53623188405794,210.4861163131222,221.8478260869565,204.3312040805C216.15942028985506,198.17629184787776,210.4710144927536,187.80509257436114,204.78260869565216,180.66561312333334C199.09420289855072,173.52613367230555,193.40579710144928,163.6651007125361,187.71739130434784,161.4943273743333C182.0289855072464,159.3235540361305,176.34057971014494,166.58242527204436,170.65217391304347,167.6409730941166C164.963768115942,168.69952091618882,159.27536231884056,170.8514392018972,153.58695652173913,167.84561430676666C147.8985507246377,164.83978941163613,142.21014492753622,153.1267582471278,136.52173913043478,149.60602372333335C130.83333333333334,146.0852891995389,125.14492753623189,150.15596962955553,119.45652173913044,146.72120716399996C113.76811594202898,143.2864446984444,108.07971014492753,138.28375999316665,102.39130434782608,128.99744893C96.70289855072463,119.71113786683334,91.01449275362319,94.55383318500004,85.32608695652173,91.00334078500005C79.63768115942028,87.45284838500005,73.94927536231884,100.10791709224446,68.26086956521739,107.69449453000001C62.57246376811594,115.28107196775557,56.884057971014485,129.87490937110277,51.19565217391304,136.52280541153334C45.507246376811594,143.1707014519639,39.81884057971014,145.8494248888445,34.130434782608695,147.58187077258341C28.44202898550725,149.31431665632232,22.753623188405797,147.42602914320557,17.065217391304348,146.91748071396668C11.376811594202898,146.4089322847278,0,144.53058019715004,0,144.53058019715004Z"><title>Disc</title></path><path fill="#ff7f0e" d="M0,415.46941980285004C0,415.46941980285004,11.376811594202898,413.5910677152722,17.065217391304348,413.0825192860333C22.753623188405797,412.5739708567944,28.44202898550725,410.68568334367774,34.130434782608695,412.41812922741667C39.81884057971014,414.1505751111556,45.507246376811594,416.82929854803615,51.19565217391304,423.4771945884667C56.884057971014485,430.1250906288973,62.57246376811594,444.71892803224443,68.26086956521739,452.30550546999996C73.94927536231884,459.8920829077555,79.63768115942028,472.547151615,85.32608695652173,468.996659215C91.01449275362319,465.446166815,96.70289855072463,440.28886213316673,102.39130434782608,431.00255107000004C108.07971014492753,421.71624000683335,113.76811594202898,416.7135553015555,119.45652173913044,413.278792836C125.14492753623189,409.84403037044444,130.83333333333334,413.91471080046114,136.52173913043478,410.3939762766667C142.21014492753622,406.8732417528723,147.8985507246377,394.9885176901028,153.58695652173913,392.15438569323334C159.27536231884056,389.32025369636386,164.963768115942,391.34215622148884,170.65217391304347,393.38918429545C176.34057971014494,395.4362123694111,182.0289855072464,403.18004881974167,187.71739130434784,404.43655413700003C193.40579710144928,405.6930594542584,199.09420289855072,400.61889878247223,204.78260869565216,400.928216199C210.4710144927536,401.2375336155278,216.15942028985506,402.0992328436222,221.8478260869565,406.29245863616666C227.53623188405794,410.4856844287111,233.22463768115944,420.8533121230083,238.91304347826087,426.08757095426665C244.6014492753623,431.321829785525,250.28985507246378,436.5914600744278,255.97826086956522,437.6980116237167C261.6666666666667,438.8045631730056,267.3550724637681,431.63835875887224,273.04347826086956,432.72688025C278.731884057971,433.8154017411278,284.42028985507244,441.9519898367001,290.1086956521739,444.2291405704834C295.7971014492753,446.50629130426677,301.4855072463768,442.90287850505285,307.17391304347825,446.38978465270003C312.8623188405797,449.8766908003472,318.5507246376812,459.78735551734997,324.2391304347826,465.1505774563666C329.92753623188406,470.5137993953832,335.6159420289855,470.49793109808604,341.30434782608694,478.56911628679995C346.9927536231884,486.64030147551387,352.6811594202899,507.9223604167028,358.3695652173913,513.5776885886501C364.05797101449275,519.2330167605973,369.74637681159425,513.2155819976695,375.4347826086957,512.5010853184833C381.1231884057971,511.7865886392972,386.81159420289856,512.1466996993472,392.5,509.29070851353333C398.18840579710144,506.43471732771945,403.8768115942029,494.862946766475,409.5652173913043,495.3651382036C415.25362318840575,495.867329640725,420.94202898550725,506.9274041569889,426.6304347826087,512.3038571362833C432.3188405797101,517.6803101155778,438.00724637681157,526.6187767866413,443.695652173913,527.6238560793666C449.38405797101444,528.628935372092,455.072463768116,522.9018596173925,460.76086956521743,518.334332892635C466.4492753623189,513.7668061678775,472.1376811594203,506.72114881979684,477.82608695652175,500.2186957308216C483.5144927536232,493.71624264184635,489.2028985507247,486.1998626748648,494.8913043478261,479.3196143587834C500.57971014492756,472.439366042702,506.268115942029,463.8655087515555,511.95652173913044,458.9372058343333C517.6449275362319,454.00890291711113,523.3333333333333,456.1234399611148,529.0217391304348,449.7497968554501C534.7101449275362,443.3761537497854,540.3985507246376,430.37318760746723,546.0869565217391,420.695347200345C551.7753623188406,411.01750679322276,557.463768115942,403.4164218985542,563.1521739130435,391.6827544127167C568.840579710145,379.9490869268792,574.5289855072463,362.11253470385384,580.2173913043478,350.29334228531997C585.9057971014493,338.4741498667861,591.5942028985507,328.60520260731147,597.2826086956522,320.7675999015134C602.9710144927537,312.9299971957153,608.659420289855,308.0566113957461,614.3478260869565,303.2677260505316C620.036231884058,298.47884070531717,625.7246376811594,294.51774439495523,631.4130434782609,292.0342878302266C637.1014492753624,289.550831265498,642.7898550724638,289.59066295016083,648.4782608695652,288.36698666216C654.1666666666667,287.14331037415917,659.855072463768,284.827267157018,665.5434782608695,284.69223010222163C671.231884057971,284.55719304742524,676.9202898550724,286.19657767360724,682.6086956521739,287.5567643333817C688.2971014492754,288.91695099315615,693.9855072463768,290.91535544629255,699.6739130434783,292.85335006086837C705.3623188405797,294.7913446754442,711.0507246376811,294.42860775980944,716.7391304347826,299.18473202083663C722.4275362318841,303.94085628186383,728.1159420289855,313.5530201540644,733.804347826087,321.39009562703166C739.4927536231885,329.2271710999989,745.18115942029,338.9800875270017,750.8695652173914,346.20718485864C756.5579710144928,353.43428219027834,762.2463768115942,358.69542986881333,767.9347826086956,364.75267961686166C773.623188405797,370.80992936491,785,382.55068334693,785,382.55068334693L785,402.48061853554333C785,402.48061853554333,773.623188405797,393.0816049810145,767.9347826086956,389.39014952398173C762.2463768115942,385.698694066949,756.5579710144928,384.0161080878889,750.8695652173914,380.33188579334666C745.18115942029,376.64766349880443,739.4927536231885,371.1167208701011,733.804347826087,367.28481575672834C728.1159420289855,363.45291064335555,722.4275362318841,359.02334659604776,716.7391304347826,357.34045511311C711.0507246376811,355.65756363017226,705.3623188405797,356.3547252542064,699.6739130434783,357.1874668591017C693.9855072463768,358.02020846399694,688.2971014492754,361.3581303414172,682.6086956521739,362.33690474248164C676.9202898550724,363.31567914354605,671.231884057971,362.5625893479197,665.5434782608695,363.0601132654883C659.855072463768,363.55763718305695,654.1666666666667,364.8791861456758,648.4782608695652,365.32204824789335C642.7898550724638,365.7649103501109,637.1014492753624,363.7325235934814,631.4130434782609,365.71728587879335C625.7246376811594,367.7020481641053,620.036231884058,372.3193437409561,614.3478260869565,377.230621959765C608.659420289855,382.1419001785739,602.9710144927537,388.2004259933042,597.2826086956522,395.1849551916467C591.5942028985507,402.1694843899892,585.9057971014493,411.58426637651945,580.2173913043478,419.13779714982C574.5289855072463,426.6913279231206,568.840579710145,435.5411764896791,563.1521739130435,440.50613983144996C557.463768115942,445.4711031732208,551.7753623188406,446.42116740072834,546.0869565217391,448.927577200445C540.3985507246376,451.43398700016166,534.7101449275362,453.8763271907687,529.0217391304348,455.54459862975006C523.3333333333333,457.21287006873143,517.6449275362319,454.97470321282776,511.95652173913044,458.9372058343333C506.268115942029,462.8997084558389,500.57971014492756,472.439366042702,494.8913043478261,479.3196143587834C489.2028985507247,486.1998626748648,483.5144927536232,493.71624264184635,477.82608695652175,500.2186957308216C472.1376811594203,506.72114881979684,466.4492753623189,513.7668061678775,460.76086956521743,518.334332892635C455.072463768116,522.9018596173925,449.38405797101444,528.628935372092,443.695652173913,527.6238560793666C438.00724637681157,526.6187767866413,432.3188405797101,517.6803101155778,426.6304347826087,512.3038571362833C420.94202898550725,506.9274041569889,415.25362318840575,495.867329640725,409.5652173913043,495.3651382036C403.8768115942029,494.862946766475,398.18840579710144,506.43471732771945,392.5,509.29070851353333C386.81159420289856,512.1466996993472,381.1231884057971,511.7865886392972,375.4347826086957,512.5010853184833C369.74637681159425,513.2155819976695,364.05797101449275,519.2330167605973,358.3695652173913,513.5776885886501C352.6811594202899,507.9223604167028,346.9927536231884,486.64030147551387,341.30434782608694,478.56911628679995C335.6159420289855,470.49793109808604,329.92753623188406,470.5137993953832,324.2391304347826,465.1505774563666C318.5507246376812,459.78735551734997,312.8623188405797,449.8766908003472,307.17391304347825,446.38978465270003C301.4855072463768,442.90287850505285,295.7971014492753,446.50629130426677,290.1086956521739,444.2291405704834C284.42028985507244,441.9519898367001,278.731884057971,433.8154017411278,273.04347826086956,432.72688025C267.3550724637681,431.63835875887224,261.6666666666667,438.8045631730056,255.97826086956522,437.6980116237167C250.28985507246378,436.5914600744278,244.6014492753623,431.321829785525,238.91304347826087,426.08757095426665C233.22463768115944,420.8533121230083,227.53623188405794,410.4856844287111,221.8478260869565,406.29245863616666C216.15942028985506,402.0992328436222,210.4710144927536,401.2375336155278,204.78260869565216,400.928216199C199.09420289855072,400.61889878247223,193.40579710144928,405.6930594542584,187.71739130434784,404.43655413700003C182.0289855072464,403.18004881974167,176.34057971014494,395.4362123694111,170.65217391304347,393.38918429545C164.963768115942,391.34215622148884,159.27536231884056,389.32025369636386,153.58695652173913,392.15438569323334C147.8985507246377,394.9885176901028,142.21014492753622,406.8732417528723,136.52173913043478,410.3939762766667C130.83333333333334,413.91471080046114,125.14492753623189,409.84403037044444,119.45652173913044,413.278792836C113.76811594202898,416.7135553015555,108.07971014492753,421.71624000683335,102.39130434782608,431.00255107000004C96.70289855072463,440.28886213316673,91.01449275362319,465.446166815,85.32608695652173,468.996659215C79.63768115942028,472.547151615,73.94927536231884,459.8920829077555,68.26086956521739,452.30550546999996C62.57246376811594,444.71892803224443,56.884057971014485,430.1250906288973,51.19565217391304,423.4771945884667C45.507246376811594,416.82929854803615,39.81884057971014,414.1505751111556,34.130434782608695,412.41812922741667C28.44202898550725,410.68568334367774,22.753623188405797,412.5739708567944,17.065217391304348,413.0825192860333C11.376811594202898,413.5910677152722,0,415.46941980285004,0,415.46941980285004Z"><title>Download</title></path><path fill="#2ca02c" d="M0,415.46941980285004C0,415.46941980285004,11.376811594202898,413.5910677152722,17.065217391304348,413.0825192860333C22.753623188405797,412.5739708567944,28.44202898550725,410.68568334367774,34.130434782608695,412.41812922741667C39.81884057971014,414.1505751111556,45.507246376811594,416.82929854803615,51.19565217391304,423.4771945884667C56.884057971014485,430.1250906288973,62.57246376811594,444.71892803224443,68.26086956521739,452.30550546999996C73.94927536231884,459.8920829077555,79.63768115942028,472.547151615,85.32608695652173,468.996659215C91.01449275362319,465.446166815,96.70289855072463,440.28886213316673,102.39130434782608,431.00255107000004C108.07971014492753,421.71624000683335,113.76811594202898,416.7135553015555,119.45652173913044,413.278792836C125.14492753623189,409.84403037044444,130.83333333333334,413.91471080046114,136.52173913043478,410.3939762766667C142.21014492753622,406.8732417528723,147.8985507246377,394.9885176901028,153.58695652173913,392.15438569323334C159.27536231884056,389.32025369636386,164.963768115942,391.34215622148884,170.65217391304347,393.38918429545C176.34057971014494,395.4362123694111,182.0289855072464,403.18004881974167,187.71739130434784,404.43655413700003C193.40579710144928,405.6930594542584,199.09420289855072,400.61889878247223,204.78260869565216,400.928216199C210.4710144927536,401.2375336155278,216.15942028985506,402.0992328436222,221.8478260869565,406.29245863616666C227.53623188405794,410.4856844287111,233.22463768115944,420.8533121230083,238.91304347826087,426.08757095426665C244.6014492753623,431.321829785525,250.28985507246378,436.5914600744278,255.97826086956522,437.6980116237167C261.6666666666667,438.8045631730056,267.3550724637681,431.63835875887224,273.04347826086956,432.72688025C278.731884057971,433.8154017411278,284.42028985507244,441.9519898367001,290.1086956521739,444.2291405704834C295.7971014492753,446.50629130426677,301.4855072463768,442.90287850505285,307.17391304347825,446.38978465270003C312.8623188405797,449.8766908003472,318.5507246376812,459.78735551734997,324.2391304347826,465.1505774563666C329.92753623188406,470.5137993953832,335.6159420289855,470.49793109808604,341.30434782608694,478.56911628679995C346.9927536231884,486.64030147551387,352.6811594202899,507.9223604167028,358.3695652173913,513.5776885886501C364.05797101449275,519.2330167605973,369.74637681159425,513.2155819976695,375.4347826086957,512.5010853184833C381.1231884057971,511.7865886392972,386.81159420289856,512.1466996993472,392.5,509.29070851353333C398.18840579710144,506.43471732771945,403.8768115942029,494.862946766475,409.5652173913043,495.3651382036C415.25362318840575,495.867329640725,420.94202898550725,506.9274041569889,426.6304347826087,512.3038571362833C432.3188405797101,517.6803101155778,438.00724637681157,526.6187767866413,443.695652173913,527.6238560793666C449.38405797101444,528.628935372092,455.072463768116,522.9018596173925,460.76086956521743,518.334332892635C466.4492753623189,513.7668061678775,472.1376811594203,506.72114881979684,477.82608695652175,500.2186957308216C483.5144927536232,493.71624264184635,489.2028985507247,486.1998626748648,494.8913043478261,479.3196143587834C500.57971014492756,472.439366042702,506.268115942029,462.8997084558389,511.95652173913044,458.9372058343333C517.6449275362319,454.97470321282776,523.3333333333333,457.21287006873143,529.0217391304348,455.54459862975006C534.7101449275362,453.8763271907687,540.3985507246376,451.43398700016166,546.0869565217391,448.927577200445C551.7753623188406,446.42116740072834,557.463768115942,445.4711031732208,563.1521739130435,440.50613983144996C568.840579710145,435.5411764896791,574.5289855072463,426.6913279231206,580.2173913043478,419.13779714982C585.9057971014493,411.58426637651945,591.5942028985507,402.1694843899892,597.2826086956522,395.1849551916467C602.9710144927537,388.2004259933042,608.659420289855,382.1419001785739,614.3478260869565,377.230621959765C620.036231884058,372.3193437409561,625.7246376811594,367.7020481641053,631.4130434782609,365.71728587879335C637.1014492753624,363.7325235934814,642.7898550724638,365.7649103501109,648.4782608695652,365.32204824789335C654.1666666666667,364.8791861456758,659.855072463768,363.55763718305695,665.5434782608695,363.0601132654883C671.231884057971,362.5625893479197,676.9202898550724,363.31567914354605,682.6086956521739,362.33690474248164C688.2971014492754,361.3581303414172,693.9855072463768,358.02020846399694,699.6739130434783,357.1874668591017C705.3623188405797,356.3547252542064,711.0507246376811,355.65756363017226,716.7391304347826,357.34045511311C722.4275362318841,359.02334659604776,728.1159420289855,363.45291064335555,733.804347826087,367.28481575672834C739.4927536231885,371.1167208701011,745.18115942029,376.64766349880443,750.8695652173914,380.33188579334666C756.5579710144928,384.0161080878889,762.2463768115942,385.698694066949,767.9347826086956,389.39014952398173C773.623188405797,393.0816049810145,785,402.48061853554333,785,402.48061853554333L785,409.6351174197334C785,409.6351174197334,773.623188405797,400.71923656408774,767.9347826086956,396.9530834273783C762.2463768115942,393.1869302906689,756.5579710144928,390.8332033874489,750.8695652173914,387.0381985994767C745.18115942029,383.24319381150445,739.4927536231885,377.94772714773273,733.804347826087,374.183054699545C728.1159420289855,370.41838225135723,722.4275362318841,366.08945408231784,716.7391304347826,364.45016391035006C711.0507246376811,362.81087373838227,705.3623188405797,363.4100139866097,699.6739130434783,364.3473136677383C693.9855072463768,365.2846133488669,688.2971014492754,368.94154714442664,682.6086956521739,370.07396199712167C676.9202898550724,371.2063768498167,671.231884057971,370.38459198610144,665.5434782608695,371.14180278390836C659.855072463768,371.8990135817153,654.1666666666667,373.81789172816866,648.4782608695652,374.61722678396336C642.7898550724638,375.41656183975806,637.1014492753624,373.5618798048647,631.4130434782609,375.9378131186767C625.7246376811594,378.31374643248864,620.036231884058,384.59780093340277,614.3478260869565,388.872826666835C608.659420289855,393.14785240026725,602.9710144927537,394.1923012707614,597.2826086956522,401.58796751927C591.5942028985507,408.98363376777866,585.9057971014493,424.5145863766811,580.2173913043478,433.24682415788664C574.5289855072463,441.97906193909216,568.840579710145,448.24018425494194,563.1521739130435,453.98139420650335C557.463768115942,459.72260415806477,551.7753623188406,464.2035136036744,546.0869565217391,467.694083867255C540.3985507246376,471.1846541308356,534.7101449275362,474.1802573198737,529.0217391304348,474.92481578798674C523.3333333333333,475.6693742560998,517.6449275362319,469.78814327321726,511.95652173913044,472.1614346759334C506.268115942029,474.5347260786495,500.57971014492756,482.6065747926481,494.8913043478261,489.16456420428335C489.2028985507247,495.7225536159186,483.5144927536232,505.020152509353,477.82608695652175,511.509371145745C472.1376811594203,517.998589782137,466.4492753623189,523.1660895069759,460.76086956521743,528.099876022635C455.072463768116,533.0336625382942,449.38405797101444,540.6462041849808,443.695652173913,541.1120902396999C438.00724637681157,541.577976294419,432.3188405797101,536.5132768936888,426.6304347826087,530.89519235095C420.94202898550725,525.2771078082111,415.25362318840575,509.5082452958361,409.5652173913043,507.4035829832667C403.8768115942029,505.29892067069727,398.18840579710144,515.9804494961083,392.5,518.2672184755334C386.81159420289856,520.5539874549584,381.1231884057971,520.3554165697417,375.4347826086957,521.1241968598167C369.74637681159425,521.8929771498917,364.05797101449275,528.5048186173194,358.3695652173913,522.8799002159833C352.6811594202899,517.2549818146472,346.9927536231884,495.88084116929167,341.30434782608694,487.3746864518C335.6159420289855,478.86853173430836,329.92753623188406,477.8116921167722,324.2391304347826,471.84297191103326C318.5507246376812,465.87425170529434,312.8623188405797,454.8540017862361,307.17391304347825,451.5623652173667C301.4855072463768,448.27072864849725,295.7971014492753,454.3071324090445,290.1086956521739,452.09315249781673C284.42028985507244,449.87917258658894,278.731884057971,440.67767589568336,273.04347826086956,438.27848575C267.3550724637681,435.87929560431667,261.6666666666667,439.7298307563389,255.97826086956522,437.6980116237167C250.28985507246378,435.6661924910945,244.6014492753623,431.321829785525,238.91304347826087,426.08757095426665C233.22463768115944,420.8533121230083,227.53623188405794,410.4856844287111,221.8478260869565,406.29245863616666C216.15942028985506,402.0992328436222,210.4710144927536,401.2375336155278,204.78260869565216,400.928216199C199.09420289855072,400.61889878247223,193.40579710144928,405.6930594542584,187.71739130434784,404.43655413700003C182.0289855072464,403.18004881974167,176.34057971014494,395.4362123694111,170.65217391304347,393.38918429545C164.963768115942,391.34215622148884,159.27536231884056,389.32025369636386,153.58695652173913,392.15438569323334C147.8985507246377,394.9885176901028,142.21014492753622,406.8732417528723,136.52173913043478,410.3939762766667C130.83333333333334,413.91471080046114,125.14492753623189,409.84403037044444,119.45652173913044,413.278792836C113.76811594202898,416.7135553015555,108.07971014492753,421.71624000683335,102.39130434782608,431.00255107000004C96.70289855072463,440.28886213316673,91.01449275362319,465.446166815,85.32608695652173,468.996659215C79.63768115942028,472.547151615,73.94927536231884,459.8920829077555,68.26086956521739,452.30550546999996C62.57246376811594,444.71892803224443,56.884057971014485,430.1250906288973,51.19565217391304,423.4771945884667C45.507246376811594,416.82929854803615,39.81884057971014,414.1505751111556,34.130434782608695,412.41812922741667C28.44202898550725,410.68568334367774,22.753623188405797,412.5739708567944,17.065217391304348,413.0825192860333C11.376811594202898,413.5910677152722,0,415.46941980285004,0,415.46941980285004Z"><title>Other</title></path><path fill="#d62728" d="M0,415.46941980285004C0,415.46941980285004,11.376811594202898,413.5910677152722,17.065217391304348,413.0825192860333C22.753623188405797,412.5739708567944,28.44202898550725,410.68568334367774,34.130434782608695,412.41812922741667C39.81884057971014,414.1505751111556,45.507246376811594,416.82929854803615,51.19565217391304,423.4771945884667C56.884057971014485,430.1250906288973,62.57246376811594,444.71892803224443,68.26086956521739,452.30550546999996C73.94927536231884,459.8920829077555,79.63768115942028,472.547151615,85.32608695652173,468.996659215C91.01449275362319,465.446166815,96.70289855072463,440.28886213316673,102.39130434782608,431.00255107000004C108.07971014492753,421.71624000683335,113.76811594202898,416.7135553015555,119.45652173913044,413.278792836C125.14492753623189,409.84403037044444,130.83333333333334,413.91471080046114,136.52173913043478,410.3939762766667C142.21014492753622,406.8732417528723,147.8985507246377,394.9885176901028,153.58695652173913,392.15438569323334C159.27536231884056,389.32025369636386,164.963768115942,391.34215622148884,170.65217391304347,393.38918429545C176.34057971014494,395.4362123694111,182.0289855072464,403.18004881974167,187.71739130434784,404.43655413700003C193.40579710144928,405.6930594542584,199.09420289855072,400.61889878247223,204.78260869565216,400.928216199C210.4710144927536,401.2375336155278,216.15942028985506,402.0992328436222,221.8478260869565,406.29245863616666C227.53623188405794,410.4856844287111,233.22463768115944,420.8533121230083,238.91304347826087,426.08757095426665C244.6014492753623,431.321829785525,250.28985507246378,436.5914600744278,255.97826086956522,437.6980116237167C261.6666666666667,438.8045631730056,267.3550724637681,431.63835875887224,273.04347826086956,432.72688025C278.731884057971,433.8154017411278,284.42028985507244,441.9519898367001,290.1086956521739,444.2291405704834C295.7971014492753,446.50629130426677,301.4855072463768,442.90287850505285,307.17391304347825,446.38978465270003C312.8623188405797,449.8766908003472,318.5507246376812,459.78735551734997,324.2391304347826,465.1505774563666C329.92753623188406,470.5137993953832,335.6159420289855,470.49793109808604,341.30434782608694,478.56911628679995C346.9927536231884,486.64030147551387,352.6811594202899,507.9223604167028,358.3695652173913,513.5776885886501C364.05797101449275,519.2330167605973,369.74637681159425,513.2155819976695,375.4347826086957,512.5010853184833C381.1231884057971,511.7865886392972,386.81159420289856,512.1466996993472,392.5,509.29070851353333C398.18840579710144,506.43471732771945,403.8768115942029,494.862946766475,409.5652173913043,495.3651382036C415.25362318840575,495.867329640725,420.94202898550725,506.9274041569889,426.6304347826087,512.3038571362833C432.3188405797101,517.6803101155778,438.00724637681157,526.6187767866413,443.695652173913,527.6238560793666C449.38405797101444,528.628935372092,455.072463768116,522.9018596173925,460.76086956521743,518.334332892635C466.4492753623189,513.7668061678775,472.1376811594203,506.72114881979684,477.82608695652175,500.2186957308216C483.5144927536232,493.71624264184635,489.2028985507247,486.1998626748648,494.8913043478261,479.3196143587834C500.57971014492756,472.439366042702,506.268115942029,463.90182494795613,511.95652173913044,458.9372058343333C517.6449275362319,453.9725867207105,523.3333333333333,456.7689324124948,529.0217391304348,449.53189967704674C534.7101449275362,442.2948669415987,540.3985507246376,426.33519919970007,546.0869565217391,415.51500942164506C551.7753623188406,404.69481964359005,557.463768115942,396.77693222860967,563.1521739130435,384.6107610087166C568.840579710145,372.4445897888236,574.5289855072463,354.6426631160428,580.2173913043478,342.5179821022867C585.9057971014493,330.39330108853056,591.5942028985507,320.0805985191948,597.2826086956522,311.86267492618003C602.9710144927537,303.6447513331653,608.659420289855,298.61982705080163,614.3478260869565,293.2104405441983C620.036231884058,287.801054037595,625.7246376811594,283.1024848819553,631.4130434782609,279.40635588656005C637.1014492753624,275.7102268911648,642.7898550724638,274.62514750066083,648.4782608695652,271.03366657182664C654.1666666666667,267.44218564299246,659.855072463768,261.3116019109069,665.5434782608695,257.857470313555C671.231884057971,254.40333871620305,676.9202898550724,252.1510422740517,682.6086956521739,250.30887698771502C688.2971014492754,248.46671170137836,693.9855072463768,248.4376658030147,699.6739130434783,246.804478595535C705.3623188405797,245.17129138805527,711.0507246376811,244.49151524284278,716.7391304347826,240.50975374283666C722.4275362318841,236.52799224283055,728.1159420289855,228.2734080091422,733.804347826087,222.91390959549832C739.4927536231885,217.55441118185445,745.18115942029,213.88061422524612,750.8695652173914,208.35276326097335C756.5579710144928,202.82491229670057,762.2463768115942,195.05780203836892,767.9347826086956,189.7468038098617C773.623188405797,184.43580558135446,785,176.48677388993,785,176.48677388993L785,382.55068334693C785,382.55068334693,773.623188405797,370.80992936491,767.9347826086956,364.75267961686166C762.2463768115942,358.69542986881333,756.5579710144928,353.43428219027834,750.8695652173914,346.20718485864C745.18115942029,338.9800875270017,739.4927536231885,329.2271710999989,733.804347826087,321.39009562703166C728.1159420289855,313.5530201540644,722.4275362318841,303.94085628186383,716.7391304347826,299.18473202083663C711.0507246376811,294.42860775980944,705.3623188405797,294.7913446754442,699.6739130434783,292.85335006086837C693.9855072463768,290.91535544629255,688.2971014492754,288.91695099315615,682.6086956521739,287.5567643333817C676.9202898550724,286.19657767360724,671.231884057971,284.55719304742524,665.5434782608695,284.69223010222163C659.855072463768,284.827267157018,654.1666666666667,287.14331037415917,648.4782608695652,288.36698666216C642.7898550724638,289.59066295016083,637.1014492753624,289.550831265498,631.4130434782609,292.0342878302266C625.7246376811594,294.51774439495523,620.036231884058,298.47884070531717,614.3478260869565,303.2677260505316C608.659420289855,308.0566113957461,602.9710144927537,312.9299971957153,597.2826086956522,320.7675999015134C591.5942028985507,328.60520260731147,585.9057971014493,338.4741498667861,580.2173913043478,350.29334228531997C574.5289855072463,362.11253470385384,568.840579710145,379.9490869268792,563.1521739130435,391.6827544127167C557.463768115942,403.4164218985542,551.7753623188406,411.01750679322276,546.0869565217391,420.695347200345C540.3985507246376,430.37318760746723,534.7101449275362,443.3761537497854,529.0217391304348,449.7497968554501C523.3333333333333,456.1234399611148,517.6449275362319,454.00890291711113,511.95652173913044,458.9372058343333C506.268115942029,463.8655087515555,500.57971014492756,472.439366042702,494.8913043478261,479.3196143587834C489.2028985507247,486.1998626748648,483.5144927536232,493.71624264184635,477.82608695652175,500.2186957308216C472.1376811594203,506.72114881979684,466.4492753623189,513.7668061678775,460.76086956521743,518.334332892635C455.072463768116,522.9018596173925,449.38405797101444,528.628935372092,443.695652173913,527.6238560793666C438.00724637681157,526.6187767866413,432.3188405797101,517.6803101155778,426.6304347826087,512.3038571362833C420.94202898550725,506.9274041569889,415.25362318840575,495.867329640725,409.5652173913043,495.3651382036C403.8768115942029,494.862946766475,398.18840579710144,506.43471732771945,392.5,509.29070851353333C386.81159420289856,512.1466996993472,381.1231884057971,511.7865886392972,375.4347826086957,512.5010853184833C369.74637681159425,513.2155819976695,364.05797101449275,519.2330167605973,358.3695652173913,513.5776885886501C352.6811594202899,507.9223604167028,346.9927536231884,486.64030147551387,341.30434782608694,478.56911628679995C335.6159420289855,470.49793109808604,329.92753623188406,470.5137993953832,324.2391304347826,465.1505774563666C318.5507246376812,459.78735551734997,312.8623188405797,449.8766908003472,307.17391304347825,446.38978465270003C301.4855072463768,442.90287850505285,295.7971014492753,446.50629130426677,290.1086956521739,444.2291405704834C284.42028985507244,441.9519898367001,278.731884057971,433.8154017411278,273.04347826086956,432.72688025C267.3550724637681,431.63835875887224,261.6666666666667,438.8045631730056,255.97826086956522,437.6980116237167C250.28985507246378,436.5914600744278,244.6014492753623,431.321829785525,238.91304347826087,426.08757095426665C233.22463768115944,420.8533121230083,227.53623188405794,410.4856844287111,221.8478260869565,406.29245863616666C216.15942028985506,402.0992328436222,210.4710144927536,401.2375336155278,204.78260869565216,400.928216199C199.09420289855072,400.61889878247223,193.40579710144928,405.6930594542584,187.71739130434784,404.43655413700003C182.0289855072464,403.18004881974167,176.34057971014494,395.4362123694111,170.65217391304347,393.38918429545C164.963768115942,391.34215622148884,159.27536231884056,389.32025369636386,153.58695652173913,392.15438569323334C147.8985507246377,394.9885176901028,142.21014492753622,406.8732417528723,136.52173913043478,410.3939762766667C130.83333333333334,413.91471080046114,125.14492753623189,409.84403037044444,119.45652173913044,413.278792836C113.76811594202898,416.7135553015555,108.07971014492753,421.71624000683335,102.39130434782608,431.00255107000004C96.70289855072463,440.28886213316673,91.01449275362319,465.446166815,85.32608695652173,468.996659215C79.63768115942028,472.547151615,73.94927536231884,459.8920829077555,68.26086956521739,452.30550546999996C62.57246376811594,444.71892803224443,56.884057971014485,430.1250906288973,51.19565217391304,423.4771945884667C45.507246376811594,416.82929854803615,39.81884057971014,414.1505751111556,34.130434782608695,412.41812922741667C28.44202898550725,410.68568334367774,22.753623188405797,412.5739708567944,17.065217391304348,413.0825192860333C11.376811594202898,413.5910677152722,0,415.46941980285004,0,415.46941980285004Z"><title>Streaming</title></path><path fill="#8c564b" d="M0,222.53667473951666C0,222.53667473951666,11.376811594202898,225.23591342027223,17.065217391304348,225.53157607936666C22.753623188405797,225.8272387384611,28.44202898550725,224.66021273367775,34.130434782608695,224.3106506940833C39.81884057971014,223.96108865448886,45.507246376811594,225.46971007359173,51.19565217391304,223.43420384180004C56.884057971014485,221.39869761000836,62.57246376811594,212.8546531755777,68.26086956521739,212.09761330333328C73.94927536231884,211.34057343108884,79.63768115942028,215.41980211111112,85.32608695652173,218.89196460833335C91.01449275362319,222.36412710555558,96.70289855072463,230.09398604850006,102.39130434782608,232.9305882866667C108.07971014492753,235.76719052483335,113.76811594202898,234.7511488198333,119.45652173913044,235.9115780373333C125.14492753623189,237.0720072548333,130.83333333333334,236.6023418896278,136.52173913043478,239.8931635916667C142.21014492753622,243.1839852937056,147.8985507246377,249.62187317026945,153.58695652173913,255.65650824956666C159.27536231884056,261.69114332886386,164.963768115942,268.98307289054446,170.65217391304347,276.10097406745C176.34057971014494,283.21887524435556,182.0289855072464,291.987601095575,187.71739130434784,298.36391531099997C193.40579710144928,304.74022952642497,199.09420289855072,307.3570996511944,204.78260869565216,314.35885935999994C210.4710144927536,321.3606190688055,216.15942028985506,330.4734658966222,221.8478260869565,340.3744735638333C227.53623188405794,350.2754812310444,233.22463768115944,363.53317755861946,238.91304347826087,373.7649053632667C244.6014492753623,383.9966331679139,250.28985507246378,394.6374771189278,255.97826086956522,401.7648403917167C261.6666666666667,408.8922036645056,267.3550724637681,410.8277896209278,273.04347826086956,416.529085C278.731884057971,422.23038037907224,284.42028985507244,431.6768931316723,290.1086956521739,435.97261266615004C295.7971014492753,440.2683322006278,301.4855072463768,438.0066112910639,307.17391304347825,442.3034022068667C312.8623188405797,446.60019312266945,318.5507246376812,456.1342828546777,324.2391304347826,461.75335816096657C329.92753623188406,467.37243346725546,335.6159420289855,467.81652777449716,341.30434782608694,476.01785404459997C346.9927536231884,484.2191803147028,352.6811594202899,505.34918350670836,358.3695652173913,510.9613157815834C364.05797101449275,516.5734480564583,369.74637681159425,510.5032625221473,375.4347826086957,509.69064769385005C381.1231884057971,508.8780328655528,386.81159420289856,508.90001467287505,392.5,506.0856268118C398.18840579710144,503.271238950725,403.8768115942029,492.1320901164694,409.5652173913043,492.80432052739997C415.25362318840575,493.47655093833055,420.94202898550725,504.6720260621278,426.6304347826087,510.1190092773834C432.3188405797101,515.5659924926389,438.00724637681157,524.4287760456635,443.695652173913,525.4862198189333C449.38405797101444,526.543663592203,455.072463768116,521.0050232439481,460.76086956521743,516.4636719170018C466.4492753623189,511.9223205900554,472.1376811594203,504.6796923063524,477.82608695652175,498.2381118572549C483.5144927536232,491.7965314081574,489.2028985507247,484.59776618275356,494.8913043478261,477.81418922241664C500.57971014492756,471.0306122620797,506.268115942029,462.45668312076725,511.95652173913044,457.53665009523337C517.6449275362319,452.6166170696995,523.3333333333333,455.4370841444337,529.0217391304348,448.2939910692134C534.7101449275362,441.1508979939931,540.3985507246376,425.4182136910223,546.0869565217391,414.6780916439117C551.7753623188406,403.93796959680117,557.463768115942,396.0089575202502,563.1521739130435,383.85325878654993C568.840579710145,371.69756005284967,574.5289855072463,354.01754951203276,580.2173913043478,341.74389924171C585.9057971014493,329.4702489713872,591.5942028985507,318.60751882717915,597.2826086956522,310.21135716461333C602.9710144927537,301.8151955020475,608.659420289855,296.91692059472723,614.3478260869565,291.366929266315C620.036231884058,285.8169379379028,625.7246376811594,280.84836150675693,631.4130434782609,276.91140919414C637.1014492753624,272.97445688152305,642.7898550724638,271.63739754554865,648.4782608695652,267.74521539061334C654.1666666666667,263.853033235678,659.855072463768,257.3764854345086,665.5434782608695,253.5583162645283C671.231884057971,249.740147094548,676.9202898550724,247.00902079594215,682.6086956521739,244.8362003707316C688.2971014492754,242.66337994552106,693.9855072463768,242.66503752462032,699.6739130434783,240.52139371326504C705.3623188405797,238.37774990190977,711.0507246376811,236.401497864875,716.7391304347826,231.9743375026C722.4275362318841,227.547177140325,728.1159420289855,219.49583962656388,733.804347826087,213.958431539615C739.4927536231885,208.4210234526661,745.18115942029,204.46596287110387,750.8695652173914,198.74988898090663C756.5579710144928,193.0338150907094,762.2463768115942,185.33400408326605,767.9347826086956,179.66198819843163C773.623188405797,173.9899723135972,785,164.71779367190004,785,164.71779367190004L785,176.48677388993C785,176.48677388993,773.623188405797,184.43580558135446,767.9347826086956,189.7468038098617C762.2463768115942,195.05780203836892,756.5579710144928,202.82491229670057,750.8695652173914,208.35276326097335C745.18115942029,213.88061422524612,739.4927536231885,217.55441118185445,733.804347826087,222.91390959549832C728.1159420289855,228.2734080091422,722.4275362318841,236.52799224283055,716.7391304347826,240.50975374283666C711.0507246376811,244.49151524284278,705.3623188405797,245.17129138805527,699.6739130434783,246.804478595535C693.9855072463768,248.4376658030147,688.2971014492754,248.46671170137836,682.6086956521739,250.30887698771502C676.9202898550724,252.1510422740517,671.231884057971,254.40333871620305,665.5434782608695,257.857470313555C659.855072463768,261.3116019109069,654.1666666666667,267.44218564299246,648.4782608695652,271.03366657182664C642.7898550724638,274.62514750066083,637.1014492753624,275.7102268911648,631.4130434782609,279.40635588656005C625.7246376811594,283.1024848819553,620.036231884058,287.801054037595,614.3478260869565,293.2104405441983C608.659420289855,298.61982705080163,602.9710144927537,303.6447513331653,597.2826086956522,311.86267492618003C591.5942028985507,320.0805985191948,585.9057971014493,330.39330108853056,580.2173913043478,342.5179821022867C574.5289855072463,354.6426631160428,568.840579710145,372.4445897888236,563.1521739130435,384.6107610087166C557.463768115942,396.77693222860967,551.7753623188406,404.69481964359005,546.0869565217391,415.51500942164506C540.3985507246376,426.33519919970007,534.7101449275362,442.2948669415987,529.0217391304348,449.53189967704674C523.3333333333333,456.7689324124948,517.6449275362319,453.9725867207105,511.95652173913044,458.9372058343333C506.268115942029,463.90182494795613,500.57971014492756,472.439366042702,494.8913043478261,479.3196143587834C489.2028985507247,486.1998626748648,483.5144927536232,493.71624264184635,477.82608695652175,500.2186957308216C472.1376811594203,506.72114881979684,466.4492753623189,513.7668061678775,460.76086956521743,518.334332892635C455.072463768116,522.9018596173925,449.38405797101444,528.628935372092,443.695652173913,527.6238560793666C438.00724637681157,526.6187767866413,432.3188405797101,517.6803101155778,426.6304347826087,512.3038571362833C420.94202898550725,506.9274041569889,415.25362318840575,495.867329640725,409.5652173913043,495.3651382036C403.8768115942029,494.862946766475,398.18840579710144,506.43471732771945,392.5,509.29070851353333C386.81159420289856,512.1466996993472,381.1231884057971,511.7865886392972,375.4347826086957,512.5010853184833C369.74637681159425,513.2155819976695,364.05797101449275,519.2330167605973,358.3695652173913,513.5776885886501C352.6811594202899,507.9223604167028,346.9927536231884,486.64030147551387,341.30434782608694,478.56911628679995C335.6159420289855,470.49793109808604,329.92753623188406,470.5137993953832,324.2391304347826,465.1505774563666C318.5507246376812,459.78735551734997,312.8623188405797,449.8766908003472,307.17391304347825,446.38978465270003C301.4855072463768,442.90287850505285,295.7971014492753,446.50629130426677,290.1086956521739,444.2291405704834C284.42028985507244,441.9519898367001,278.731884057971,433.8154017411278,273.04347826086956,432.72688025C267.3550724637681,431.63835875887224,261.6666666666667,438.8045631730056,255.97826086956522,437.6980116237167C250.28985507246378,436.5914600744278,244.6014492753623,431.321829785525,238.91304347826087,426.08757095426665C233.22463768115944,420.8533121230083,227.53623188405794,410.4856844287111,221.8478260869565,406.29245863616666C216.15942028985506,402.0992328436222,210.4710144927536,401.2375336155278,204.78260869565216,400.928216199C199.09420289855072,400.61889878247223,193.40579710144928,405.6930594542584,187.71739130434784,404.43655413700003C182.0289855072464,403.18004881974167,176.34057971014494,395.4362123694111,170.65217391304347,393.38918429545C164.963768115942,391.34215622148884,159.27536231884056,389.32025369636386,153.58695652173913,392.15438569323334C147.8985507246377,394.9885176901028,142.21014492753622,406.8732417528723,136.52173913043478,410.3939762766667C130.83333333333334,413.91471080046114,125.14492753623189,409.84403037044444,119.45652173913044,413.278792836C113.76811594202898,416.7135553015555,108.07971014492753,421.71624000683335,102.39130434782608,431.00255107000004C96.70289855072463,440.28886213316673,91.01449275362319,465.446166815,85.32608695652173,468.996659215C79.63768115942028,472.547151615,73.94927536231884,459.8920829077555,68.26086956521739,452.30550546999996C62.57246376811594,444.71892803224443,56.884057971014485,430.1250906288973,51.19565217391304,423.4771945884667C45.507246376811594,416.82929854803615,39.81884057971014,414.1505751111556,34.130434782608695,412.41812922741667C28.44202898550725,410.68568334367774,22.753623188405797,412.5739708567944,17.065217391304348,413.0825192860333C11.376811594202898,413.5910677152722,0,415.46941980285004,0,415.46941980285004Z"><title>Vinyl</title></path></g><g id="xAxis" transform="translate(0,560)" fill="none" font-size="10" font-family="sans-serif" text-anchor="middle"><path class="domain" stroke="currentColor" d="M0,0H785"/><g class="tick" opacity="1" transform="translate(34.130434782608695,0)"><line stroke="currentColor" y2="6"/><text fill="currentColor" y="9" dy="0.71em">1,975</text></g><g class="tick" opacity="1" transform="translate(119.45652173913044,0)"><line stroke="currentColor" y2="6"/><text fill="currentColor" y="9" dy="0.71em">1,980</text></g><g class="tick" opacity="1" transform="translate(204.78260869565216,0)"><line stroke="currentColor" y2="6"/><text fill="currentColor" y="9" dy="0.71em">1,985</text></g><g class="tick" opacity="1" transform="translate(290.1086956521739,0)"><line stroke="currentColor" y2="6"/><text fill="currentColor" y="9" dy="0.71em">1,990</text></g><g class="tick" opacity="1" transform="translate(375.4347826086957,0)"><line stroke="currentColor" y2="6"/><text fill="currentColor" y="9" dy="0.71em">1,995</text></g><g class="tick" opacity="1" transform="translate(460.76086956521743,0)"><line stroke="currentColor" y2="6"/><text fill="currentColor" y="9" dy="0.71em">2,000</text></g><g class="tick" opacity="1" transform="translate(546.0869565217391,0)"><line stroke="currentColor" y2="6"/><text fill="currentColor" y="9" dy="0.71em">2,005</text></g><g class="tick" opacity="1" transform="translate(631.4130434782609,0)"><line stroke="currentColor" y2="6"/><text fill="currentColor" y="9" dy="0.71em">2,010</text></g><g class="tick" opacity="1" transform="translate(716.7391304347826,0)"><line stroke="currentColor" y2="6"/><text fill="currentColor" y="9" dy="0.71em">2,015</text></g></g><text y="556" x="785" text-anchor="end" style="font-family: Arial, sans-serif; font-size: 12px; fill: rgb(123, 123, 123); font-weight: bold;">Year</text><text x="4" text-anchor="start" dominant-baseline="hanging" style="font-family: Arial, sans-serif; font-size: 12px; fill: rgb(123, 123, 123); font-weight: bold;">Revenues in millions (Adjusted for inflation)</text><g id="labels"><text x="255.97826086956522" y="314.9725665402167" text-anchor="middle" alignment-baseline="middle" style="font-family: Arial, sans-serif; font-size: 10px; fill: black; font-weight: bold;">Tape</text><text x="443.695652173913" y="252.32172815079997" text-anchor="middle" alignment-baseline="middle" style="font-family: Arial, sans-serif; font-size: 10px; fill: black; font-weight: bold;">Disc</text><text x="665.5434782608695" y="323.876171683855" text-anchor="middle" alignment-baseline="middle" style="font-family: Arial, sans-serif; font-size: 10px; fill: black; font-weight: bold;">Download</text><text x="529.0217391304348" y="465.2347072088684" text-anchor="middle" alignment-baseline="middle" style="font-family: Arial, sans-serif; font-size: 10px; fill: black; font-weight: bold;">Other</text><text x="785" y="279.51872861843" text-anchor="end" alignment-baseline="middle" style="font-family: Arial, sans-serif; font-size: 10px; fill: black; font-weight: bold;">Streaming</text><text x="85.32608695652173" y="343.9443119116666" text-anchor="middle" alignment-baseline="middle" style="font-family: Arial, sans-serif; font-size: 10px; fill: black; font-weight: bold;">Vinyl</text></g></g><text x="4" y="4" style="font-family: Arial, sans-serif; font-size: 12px; fill: black; font-weight: bold; dominant-baseline: hanging;"/></g></g></svg>